<?xml version="1.0" standalone="no"?>
<!DOCTYPE svg PUBLIC "-//W3C//DTD SVG 20010904//EN"
 "http://www.w3.org/TR/2001/REC-SVG-20010904/DTD/svg10.dtd">
<svg version="1.0" xmlns="http://www.w3.org/2000/svg"
 width="225.000000pt" height="225.000000pt" viewBox="0 0 225.000000 225.000000"
 preserveAspectRatio="xMidYMid meet">

<g transform="translate(0.000000,225.000000) scale(0.100000,-0.100000)"
fill="#000000" stroke="none">
<path d="M1010 2244 c-145 -18 -289 -58 -395 -112 -95 -47 -223 -143 -302
-225 -582 -608 -314 -1628 489 -1861 629 -182 1274 193 1420 826 28 119 30
373 5 485 -100 442 -419 768 -847 864 -82 18 -297 32 -370 23z m355 -180 c106
-25 295 -122 378 -194 129 -112 230 -256 285 -405 184 -502 -69 -1051 -570
-1239 -200 -76 -464 -77 -658 -3 -128 48 -285 140 -273 160 3 6 1 7 -6 3 -6
-4 -14 0 -17 8 -3 9 -10 16 -16 16 -15 0 -119 118 -167 189 -54 79 -104 193
-133 298 -29 109 -32 344 -4 453 43 171 136 337 255 458 75 75 217 176 238
168 8 -3 12 -2 9 2 -6 11 47 37 136 67 159 55 361 62 543 19z"/>
<path d="M995 1974 c-11 -3 -55 -14 -98 -25 -223 -56 -442 -232 -547 -438 -97
-192 -120 -399 -68 -606 11 -44 21 -84 22 -90 4 -25 99 -190 133 -233 271
-337 708 -436 1086 -246 411 208 585 707 395 1133 -43 98 -119 205 -187 266
-19 16 -42 37 -50 46 -27 27 -105 77 -178 113 -114 57 -200 77 -353 81 -74 2
-144 2 -155 -1z m542 -479 l102 -96 41 37 c34 31 43 35 51 23 13 -21 13 -21
-44 -66 l-54 -42 -69 70 c-38 39 -86 84 -106 101 l-38 30 -92 -69 c-51 -38
-144 -107 -206 -152 l-114 -82 -92 35 c-50 20 -95 36 -98 36 -4 0 -52 -54
-108 -119 l-101 -120 -69 -15 c-85 -20 -90 -20 -90 -2 0 16 5 17 88 36 52 12
57 17 160 136 58 68 110 124 114 124 5 0 49 -16 99 -36 51 -19 97 -33 103 -30
6 3 99 70 206 150 107 79 200 145 205 145 6 1 56 -42 112 -94z m-117 -564 l0
-409 -27 -10 c-16 -5 -36 -13 -45 -17 -17 -7 -18 17 -18 419 l0 426 45 0 45 0
0 -409z m252 67 l-3 -231 -35 -49 c-20 -26 -40 -48 -45 -48 -5 0 -9 117 -9
280 l0 280 48 0 47 0 -3 -232z m-512 -193 l0 -355 -45 0 -45 0 0 355 0 355 45
0 45 0 0 -355z m-250 0 c0 -196 -4 -315 -10 -315 -5 0 -25 8 -45 17 l-35 17 0
298 0 298 45 0 45 0 0 -315z m-260 -5 c0 -77 -2 -140 -4 -140 -2 0 -23 23 -45
51 l-41 52 0 88 0 89 45 0 45 0 0 -140z"/>
</g>
</svg>
