<?xml version="1.0" encoding="UTF-8" standalone="yes"?>
<svg version="1.1" id="Layer_1" xmlns="http://www.w3.org/2000/svg" xmlns:xlink="http://www.w3.org/1999/xlink" x="0px" y="0px" viewBox="0 0 740 215.1" enable-background="new 0 0 740 215.1" xml:space="preserve" preserveAspectRatio="xMidYMid meet">
  <g>
    <g>
      <path fill="#1191D0" d="M130.9,0c1.4,1.7,3.2,3.2,4.2,5c10.4,19.1,20.7,38.3,31.1,57.4c3.3,6,2.9,11.4-1.5,16.9c-12.2,15.4-24.3,30.9-36.4,46.3c-0.6,0.7-1.1,1.5-1.8,2.1c-2.1,2-4.7,2-6.7-0.1c-0.8-0.9-1.5-2-2.1-3C107.2,105.3,96.7,86,86.3,66.6c-3.1-5.7-2.8-11.1,1.3-16.3c12.3-15.4,24.4-31,36.6-46.5c1.1-1.4,2.6-2.5,3.9-3.8C129,0,130,0,130.9,0z"/>
      <path fill="#83B441" d="M0,63.4c1.3-2.1,3.2-2.8,5.7-2.8c21.3,0,42.5,0,63.8-0.1c6.1,0,10.6,2.8,13.5,8.2c10.5,19.7,20.9,39.4,31.3,59.1c0.3,0.5,0.6,1.1,0.8,1.7c1.5,3.8-0.3,6.5-4.4,6.6c-6.1,0.1-12.2,0.1-18.3,0.1c-15.2,0-30.4,0-45.5,0.2c-6.7,0-11.4-2.9-14.5-8.7C21.7,107.3,11,87.1,0.3,66.9c-0.1-0.1-0.2-0.2-0.3-0.3C0,65.5,0,64.4,0,63.4z"/>
      <path fill="#1191D0" d="M113.8,215.1c-0.9-1.2-1.9-2.4-2.6-3.7c-6-11-11.9-22.1-17.9-33.1c-2.1-3.9-1.9-7.3,0.9-10.8c7.2-9,14.3-18.1,21.4-27.2c2.4-3.1,4.4-3,6.3,0.5c6.3,11.6,12.6,23.3,18.9,34.9c1.7,3.2,1.6,6.3-0.7,9.3c-7.3,9.3-14.6,18.6-22,28c-0.6,0.8-1.3,1.5-2,2.2C115.3,215.1,114.5,215.1,113.8,215.1z"/>
      <path fill="#1191D0" d="M740,96.2c-3.3,0.5-6.8,0.5-10,1.5c-8.4,2.8-13.4,10.5-13.5,20.1c-0.1,9.7,0,19.4,0,29.1c0,0.9,0,1.8,0,2.8c-4.4,0-8.6,0-12.9,0c0-22,0-43.8,0-65.9c4.2,0,8.3,0,12.8,0c0,1.9,0,3.9,0,6.6c7.3-5.5,15.1-7.4,23.5-7.2C740,87.6,740,91.9,740,96.2z"/>
      <path fill="#83B441" d="M267.4,149.7c-4.3,0-8.5,0-12.9,0c0-14.4,0-28.7,0-43.3c-11.2,0-22.2,0-33.3,0c0-4.4,0-8.6,0-13c11.1,0,22,0,33.2,0c0.1-5.7,0.6-11.1-2-16.3c-4.2-8.5-13.6-13-23-11.1c-9.3,1.9-16.2,9.7-16.3,19.3c-0.2,20.4-0.1,40.8-0.1,61.3c0,1,0,2,0,3.1c-4.4,0-8.6,0-13.1,0c0-0.8,0-1.5,0-2.2c0-20.1,0-40.2,0-60.3c0.1-17.6,11.7-31.3,28.7-34.1c20.1-3.2,38.6,12,38.9,32.6c0.3,20.9,0.1,41.8,0.1,62.7C267.6,148.8,267.5,149.2,267.4,149.7z"/>
      <path fill="#83B441" d="M366.7,130.3c7.4,7.2,15.4,9.3,24.5,5.6c9.5-3.9,14.4-14.4,11.8-24.2c-2.6-9.9-12.2-16.5-22.4-15.4c-10.2,1.1-18.4,9.3-18.6,19.5c-0.3,19.9-0.1,39.9-0.2,59.9c0,1,0,2,0,3.1c-4.4,0-8.6,0-13,0c-0.1-0.7-0.2-1.4-0.2-2c0-19.5-0.1-39,0-58.5c0.1-17.5,10.9-30.8,27.5-34.2c18.3-3.7,36.1,8.5,39.7,27.2c3.4,17.8-9.2,35.7-27.3,38.7c-7,1.2-13.6,0.3-20.1-2.5c-1.3-0.6-2-1.3-1.9-2.9C366.8,139.9,366.7,135.3,366.7,130.3z"/>
      <path fill="#83B441" d="M293.3,130.3c1.1,1,1.8,1.7,2.6,2.3c7.5,6.4,18.4,6.7,26.3,0.8c7.6-5.7,10.3-16,6.6-24.7c-3.9-8.9-13.5-14-23.1-12.2c-9.7,1.8-16.9,9.9-17,19.8c-0.2,19.8-0.1,39.6-0.1,59.4c0,0.9,0,1.8,0,2.9c-4.3,0-8.5,0-12.8,0c-0.1-0.4-0.2-0.9-0.2-1.3c0-20.5-0.2-41,0.1-61.5c0.2-17.6,14.3-31.5,32.2-32.5c17.2-0.9,32.6,11.7,34.9,28.8c1.8,13-2.7,23.8-13.2,31.6c-10.6,7.8-22.2,8.7-34.3,3.7c-1.4-0.6-2-1.3-1.9-2.9C293.4,139.9,293.3,135.4,293.3,130.3z"/>
      <path fill="#1191D0" d="M696.4,122c-2,16.3-17,28.7-33.9,28.4c-17.1-0.3-31.5-13.4-33.1-29.9c-1.6-17.8,9.8-33.1,27.5-36.6c16-3.2,33.2,6.8,38,22.2c-13.5,7.8-27.1,15.5-40.8,23.4c-2.2-3.8-4.3-7.3-6.5-11.2c9.7-5.6,19.3-11,29.1-16.7c-0.8-0.6-1.3-1.2-2-1.6c-10-6.9-23.9-3.7-29.8,6.9c-5.8,10.4-1.6,23.5,9.1,28.6c11,5.2,24.2,0,28.4-11.4c0.6-1.7,1.4-2.2,3.1-2.1C689.2,122.1,692.7,122,696.4,122z"/>
      <path fill="#1191D0" d="M623,83.9c0,7.3,0,14.5,0,21.7c0,5.9,0,11.7,0,17.6c0,13.5-7.4,23.6-20.2,27.7c-0.4,0.1-0.9,0.3-1.4,0.6c0,4.5,0,9.1,0,13.6c0,4.5,0,9.1,0,13.7c-4.4,0-8.5,0-13.1,0c0-4.5,0-9,0-13.5c0-4.5,0-9.1,0-13.8c-0.5-0.2-1-0.4-1.5-0.6c-12.1-3.9-19.8-13.6-20.1-26.4c-0.3-13.2-0.1-26.3-0.1-39.5c0-0.3,0.1-0.6,0.2-1c4.2,0,8.4,0,12.9,0c0,1,0,1.9,0,2.8c0,12.2,0,24.3,0,36.5c0,8.2,4.9,14.3,12.3,15.6c9.4,1.7,17.9-5.2,17.9-14.8c0.1-12.5,0-25,0-37.4c0-0.8,0-1.7,0-2.7C614.4,83.9,618.5,83.9,623,83.9z"/>
      <path fill="#83B441" d="M171.1,179c-6.1,0-12.2-0.1-18.2,0c-4,0.1-6.8-1.7-8.6-5.1c-6.2-11.5-12.4-23-18.6-34.5c-1.9-3.5-0.9-5.2,3.1-5.3c12.1-0.1,24.2-0.2,36.3-0.4c4.4-0.1,7.5,1.7,9.5,5.6c6,11.3,12.1,22.5,18.2,33.7c0.2,0.3,0.4,0.7,0.5,1c1.4,2.8,0.4,4.5-2.7,4.6c-6.5,0.1-12.9,0-19.4,0C171.1,178.8,171.1,178.9,171.1,179z"/>
      <path fill="#83B441" d="M421.3,149.9c0-4.4,0-8.5,0-12.9c0.9,0,1.8,0,2.6,0c11.3,0,22.7,0,34-0.1c1.2,0,2.8-0.5,3.7-1.3c1.5-1.5,0.6-3.8-1.8-4.9c-6.8-3.2-13.5-6.3-20.3-9.4c-3.6-1.7-7.3-3.3-10.9-5c-7.3-3.5-11-10.5-9.5-18.1c1.4-7.1,7.6-12.6,15.3-12.7c12.2-0.3,24.5-0.1,36.8-0.1c0.1,0,0.3,0.1,0.6,0.2c0,4.1,0,8.2,0,12.7c-0.8,0-1.6,0-2.4,0c-10.6,0-21.3,0-31.9,0c-0.6,0-1.2,0-1.8,0c-1.8,0.1-3.2,0.6-3.6,2.6c-0.4,1.9,0.6,3.1,2.3,3.8c4.1,1.9,8.1,3.7,12.2,5.6c6.3,2.9,12.6,5.8,18.8,8.7c7.6,3.6,11.4,10.6,9.7,18.4c-1.6,7.5-8.2,12.6-16.6,12.6C446.1,149.9,433.8,149.9,421.3,149.9z"/>
      <path fill="#1191D0" d="M535,94.7c0,4.5,0,8.6,0,13c-11.9,0-23.8,0-35.8,0c0,14.1,0,27.9,0,41.9c-4.4,0-8.6,0-13.1,0c0-0.7,0-1.5,0-2.3c0-20.1,0-40.2,0-60.4c0-19.6,14.6-34.2,34.1-34.3c5.2,0,10.5,0,15.9,0c0,4.3,0,8.5,0,13c-5.3,0-10.5-0.2-15.7,0.1c-3,0.2-6.2,0.6-8.9,1.8c-7.9,3.5-12,9.9-12.4,18.5c-0.1,2.8,0,5.7,0,8.7C511.1,94.7,522.9,94.7,535,94.7z"/>
      <path fill="#1191D0" d="M542.7,52.8c4.3,0,8.4,0,12.7,0c0,32.3,0,64.5,0,96.9c-4.2,0-8.4,0-12.7,0C542.7,117.5,542.7,85.2,542.7,52.8z"/>
    </g>
  </g>
</svg>