<?xml version="1.0" encoding="utf-8"?>
<!-- Generator: Adobe Illustrator 21.1.0, SVG Export Plug-In . SVG Version: 6.00 Build 0)  -->
<svg version="1.1" id="Layer_1" xmlns="http://www.w3.org/2000/svg" xmlns:xlink="http://www.w3.org/1999/xlink" x="0px" y="0px"
	 viewBox="0 0 1000 376" style="enable-background:new 0 0 1000 376;" xml:space="preserve">
<style type="text/css">
	.st0{fill:#333E48;}
	.st1{fill:#009BDE;}
</style>
<title>branch-logo_dark</title>
<g>
	<g>
		<path class="st0" d="M97.6,179.4c-24.6,0-43.2,7.7-55.7,25.4v-116c0-1.3-1.1-2.4-2.4-2.4H17.4c-1.3,0-2.4,1.1-2.4,2.4v268.7
			c0,1.3,1.1,2.4,2.4,2.4c0,0,0,0,0,0h22.1c1.3,0,2.4-1.1,2.4-2.4l0,0V337c6.1,8.6,14.4,15.4,24.1,19.7c10,4.4,20.8,6.5,31.7,6.4
			c23.1,0,41.2-8.1,54.2-24.2c13-16.1,19.5-38.8,19.5-68c0-29.2-6.5-51.7-19.4-67.6C139.1,187.3,120.9,179.4,97.6,179.4z M133.2,319
			c-8,11.2-20.1,16.8-36.3,16.8c-18.1,0-31.2-5-39.4-15s-12.3-26.6-12.3-49.9c0-23.3,4-39.8,12-49.6c8-9.8,21-14.7,39-14.7
			c16.7,0,29,5.3,37,15.9s12,26.6,12,48.2C145.2,291.7,141.2,307.8,133.2,319z"/>
		<path class="st0" d="M581,179.1c-32.2,0-51.6,15-57,25.2v-19.5c0-1.3-1.1-2.4-2.4-2.4l0,0h-22.2c-1.3,0-2.4,1.1-2.4,2.4
			c0,0,0,0,0,0v172.8c0,1.3,1.1,2.4,2.4,2.4l0,0h22.1c1.3,0,2.4-1.1,2.4-2.4l0,0v-88.4c0-23.1,4.3-39.7,13-49.7
			c8.6-10,22.2-17.4,40.8-17.4c14,0,24.4,3.6,30.9,10.7c6.6,7.1,9.9,17.9,9.9,32.4v112.5c0,1.3,1.1,2.4,2.4,2.4l0,0h22.1
			c1.3,0,2.4-1.1,2.4-2.4l0,0V244c0-22.7-5.4-39.2-16.2-49.5C618.5,184.2,602.4,179,581,179.1z"/>
		<path class="st0" d="M804.5,187.3c-5.8-2.4-11.9-4.3-18-5.5c-8.4-1.8-17-2.7-25.6-2.8c-26.5,0-46.8,8.1-61.2,24.3
			c-14.3,16.2-21.5,39.2-21.5,68.9c0,28.9,7,51.3,21.1,67.1c14.1,15.8,34,23.7,59.7,23.7c17.4,0,31.9-2.9,43.5-8.6
			c0.8-0.4,1.3-1.2,1.3-2.2v-18.8c0-1.3-1.1-2.4-2.4-2.4c-0.3,0-0.6,0.1-0.9,0.2c-13.5,5.3-27.8,8.1-42.3,8.3
			c-17.3,0-30.3-5.8-39.1-17.5c-8.8-11.7-13.2-28.4-13.2-50.2c0-46,18-69,54.1-69c6.3,0.1,12.5,0.9,18.6,2.4
			c5.8,1.3,11.6,2.9,17.2,5c1.2,0.5,2.6-0.1,3.1-1.4c0,0,0,0,0,0l6.7-18.5C806.3,189.1,805.7,187.8,804.5,187.3z"/>
		<path class="st0" d="M447.5,188.7c-10.2-9.4-25.9-14.1-47.1-14.1c-10.6,0-21.1,1.3-31.4,4c-9.3,2.4-18.3,5.8-26.9,10.2
			c-1.1,0.6-1.6,1.9-1.1,3l6.5,16.2c0.5,1.2,1.9,1.8,3.1,1.3c0,0,0.1,0,0.1-0.1c17.8-8.3,33.7-12.5,47.9-12.5
			c13.2,0,22.8,3.3,28.8,10c4.1,4.5,7.6,13.9,8,22.2l-24.9,0.2c-10.5,0.1-23,0.8-35.6,5.7c-11.5,4.3-21.8,11.2-30.3,20.1
			c-13.3,14.2-19.8,33.5-17.9,52.9c1.8,18.5,10.9,32.3,25.7,42.9c11.2,8,24.5,12.2,38.2,12.2l0,0c7.2,0,14.4-1.2,21.2-3.6
			c9.1-3.2,17.5-8.4,24.5-15.1v13.1c0,1.3,1.1,2.4,2.4,2.4l0,0h21.5c1.3,0,2.4-1.1,2.4-2.4l0,0V235.1
			C462.8,214.4,457.7,198.1,447.5,188.7z M437.1,282.2c-0.1,23.1-11.6,48.4-34.7,56.6c-12.5,4.3-26.4,2.2-37.1-5.5
			c-20.2-14.5-20.7-44.4-4.2-61.9c6.1-6.3,13.5-11.2,21.7-14.2c8.9-3.4,18.2-4.1,27.7-4.2l26.7,0.1
			C437.2,253.2,437.1,282.2,437.1,282.2z"/>
		<path class="st0" d="M304.7,182.3c-6.4-0.9-12.8-1.3-19.2-1.3c-31.6,1.1-53.9,21.4-53.8,23.5c0-6.5,0-12,0-18.2
			c0-1.3-1.1-2.4-2.4-2.4h-22.1c-1.3,0-2.4,1.1-2.4,2.4c0,0,0,0,0,0v172.8c0,1.3,1.1,2.4,2.4,2.4c0,0,0,0,0,0h22.1
			c1.3,0,2.4-1.1,2.4-2.4l0,0v-92.9c0-17.4,5.1-31.9,15.3-43.6c10.2-11.7,22.5-17.5,36.9-17.5c5.7,0.1,11.4,0.7,17,1.9
			c1.3,0.3,2.6-0.6,2.8-1.9c0,0,0-0.1,0-0.1l3-20.1C307,183.7,306.1,182.5,304.7,182.3C304.7,182.3,304.7,182.3,304.7,182.3z"/>
		<path class="st0" d="M971.8,194.5c-10.8-10.3-26.9-15.5-48.3-15.5c-32.2,0-51.6,15-57,25.2l-1.2-34.5l28.9-17.7
			c10,7,23.8,4.5,30.8-5.5c7-10,4.5-23.8-5.5-30.8c-10-7-23.8-4.5-30.8,5.5c-3.3,4.7-4.6,10.5-3.7,16.2l-20.4,12.6l-1.5-41.6
			L891.6,91c11.3,8.5,27.4,6.2,35.9-5.1s6.2-27.4-5.1-35.9c-11.3-8.5-27.4-6.2-35.9,5.1c-4.6,6.1-6.2,14-4.4,21.5l-19.6,12.1
			l-1.2-33.3c12-4.6,18-18.1,13.3-30.1c-4.6-12-18.1-18-30.1-13.3s-18,18.1-13.3,30.1c2.4,6.1,7.2,11,13.3,13.3l-2.1,68.9
			l-21.3-13.6c3.4-14.5-5.7-29-20.2-32.4c-14.5-3.4-29,5.7-32.4,20.2s5.7,29,20.2,32.4c8.2,1.9,16.9-0.1,23.4-5.6l29.7,18.8
			l-1.5,50.4l0,0l-0.8,26.8v136c0,1.3,1.1,2.4,2.4,2.4l0,0h22.3c1.3,0,2.4-1.1,2.4-2.4l0,0v-88.4c0-23.1,4.3-39.7,13-49.7
			c8-9.3,20.2-16.3,36.7-17.3c1.2,0,2.4-0.1,3.6-0.1h0.4c14,0,24.3,3.6,30.9,10.7c6.6,7.1,9.9,17.9,9.9,32.4v87.8l0,0v24.7
			c0,1.3,1.1,2.4,2.4,2.4l0,0h22.2c1.3,0,2.4-1.1,2.4-2.4l0,0v-24.7l0-88.8C988,221.3,982.6,204.8,971.8,194.5z"/>
	</g>
	<g>
		<path class="st1" d="M852.9,19.7c-7.8,0-14.1,6.3-14.1,14.1c0,7.8,6.3,14.1,14.1,14.1c7.8,0,14.1-6.3,14.1-14.1
			C867.1,26,860.7,19.7,852.9,19.7z"/>
		<path class="st1" d="M906.2,121.5c-7.1,0-12.8,5.7-12.8,12.8c0,7.1,5.7,12.8,12.8,12.8c7.1,0,12.8-5.7,12.8-12.8
			C919,127.2,913.3,121.5,906.2,121.5z"/>
		<path class="st1" d="M914.1,84.3c7.5-3.6,10.6-12.7,7-20.2c-3.6-7.5-12.7-10.6-20.2-7c-7.5,3.6-10.6,12.7-7,20.1
			C897.5,84.8,906.6,87.9,914.1,84.3z"/>
		<path class="st1" d="M794.9,88.5c-9,0-16.3,7.3-16.3,16.3c0,9,7.3,16.3,16.3,16.3c9,0,16.3-7.3,16.3-16.3
			C811.1,95.8,803.9,88.5,794.9,88.5z"/>
	</g>
</g>
</svg>
