<svg height="1000" width="2500" xmlns="http://www.w3.org/2000/svg" viewBox="0 0.038 100.01500000000001 39.634"><g fill="#222" fill-rule="evenodd"><path d="M39.563 19.855c0 10.944-8.857 19.817-19.781 19.817C8.857 39.672 0 30.799 0 19.855 0 8.91 8.857.038 19.782.038c10.924 0 19.781 8.872 19.781 19.817zm-7.241-5.267a.827.827 0 0 0-.836 0l-10.668 6.227a.847.847 0 0 0-.418.732v3.283c0 .302.158.58.418.731a.826.826 0 0 0 .835 0l3.51-2.05v7.612a.836.836 0 0 0 .834.844.836.836 0 0 0 .418-.113l2.097-1.224a.847.847 0 0 0 .418-.731v-8.587l3.392-1.981a.846.846 0 0 0 .417-.731v-3.28c0-.302-.16-.581-.417-.732zm-11.504-1.99l3.362 1.964a.06.06 0 0 1 .029.05v2.437c0 .257.275.419.497.29 1.306-.762 4.822-2.81 6.118-3.564a.329.329 0 0 0-.004-.569l-9.167-5.35a.827.827 0 0 0-.835 0 .844.844 0 0 0-.418.73v3.282c0 .301.158.58.418.73zm-1.892-4.743a.827.827 0 0 0-.835 0L8.92 13.21a.326.326 0 0 0-.004.564c1.294.752 4.833 2.814 6.133 3.571a.324.324 0 0 0 .487-.285v-2.48l3.227-1.884c.36-.211.582-.598.582-1.015V8.586c0-.301-.16-.58-.418-.73zm-.18 12.96L8.076 14.59a.825.825 0 0 0-.834 0 .844.844 0 0 0-.418.73V18.6c0 .302.16.58.418.731l3.391 1.98v8.588c0 .3.159.58.417.73l2.099 1.226a.835.835 0 0 0 1.252-.731v-7.612l3.51 2.05c.003 0 .005.002.007.003a.829.829 0 0 0 .828-.003.846.846 0 0 0 .418-.731v-3.285c0-.3-.16-.58-.418-.73zM50.842 25.325c2.982 0 4.907-2.352 4.907-5.365 0-2.985-1.925-5.337-4.907-5.337h-2.769v10.702zM43.96 11.24c0-.265.21-.502.474-.502h6.436c5.09 0 9.259 4.148 9.259 9.221 0 5.127-4.169 9.275-9.26 9.275h-6.435c-.263 0-.474-.237-.474-.502zM62.369 17.609c0-.344.263-.582.579-.582h1.267c.318 0 .475.159.554.37l.554 1.348c.527-.978 1.45-1.982 3.033-1.982 1.109 0 1.926.29 2.374.634.212.159.212.423.08.66l-1.215 2.405c-.13.24-.341.424-.685.29-.211-.078-.659-.184-.923-.184-.924 0-1.61.662-1.61 1.692v6.394c0 .37-.21.582-.658.582h-2.771a.586.586 0 0 1-.58-.582zM73.216 17.609c0-.344.263-.582.58-.582h2.848c.318 0 .58.238.58.582v11.045a.585.585 0 0 1-.58.582h-2.849a.585.585 0 0 1-.579-.582zm-.291-4.545c0-1.268 1.002-2.325 2.268-2.325 1.266 0 2.296 1.057 2.296 2.325 0 1.242-1.03 2.272-2.296 2.272a2.27 2.27 0 0 1-2.268-2.272zM81.027 20.648h-1.055a.57.57 0 0 1-.58-.582V17.61c0-.344.237-.581.58-.581h1.055v-1.004c0-3.278 1.714-5.55 5.249-5.55 1.582 0 3.192.66 3.72 1.162.184.134.236.45.105.687l-1.292 2.273a.494.494 0 0 1-.66.158c-.396-.237-.975-.474-1.583-.474-1.372 0-1.531.766-1.531 1.744v1.004h3.062c.315 0 .579.237.579.58v2.458a.586.586 0 0 1-.58.582h-3.061v8.007c0 .317-.29.581-.604.581h-2.824a.604.604 0 0 1-.58-.581zM92.39 20.357h-1.002c-.29 0-.529-.265-.529-.582v-2.457c0-.343.238-.581.529-.581h1.002v-3.382c0-.317.264-.583.58-.583h2.901c.292 0 .528.266.528.583v3.382h2.454c.315 0 .579.238.579.581v2.457a.586.586 0 0 1-.58.582H96.4v4.254c0 .582.29.845.819.845.42 0 1.212-.185 1.503-.263.316-.08.606.052.686.37l.527 2.299c.08.37-.054.528-.395.687-.818.343-2.19.687-3.483.687-2.32 0-3.666-1.48-3.666-4.254z"/></g></svg>