
<?xml version="1.0" standalone="no"?>
<!DOCTYPE svg PUBLIC "-//W3C//DTD SVG 20010904//EN"
 "http://www.w3.org/TR/2001/REC-SVG-20010904/DTD/svg10.dtd">
<svg version="1.0" xmlns="http://www.w3.org/2000/svg"
 width="1024.000000pt" height="560.000000pt" viewBox="0 0 1024.000000 560.000000"
 preserveAspectRatio="xMidYMid meet">
<metadata>
Created by potrace 1.15, written by Peter Selinger 2001-2017
</metadata>
<g transform="translate(0.000000,560.000000) scale(0.100000,-0.100000)"
fill="#000000" stroke="none">
<path d="M0 2800 l0 -2800 5120 0 5120 0 0 2800 0 2800 -5120 0 -5120 0 0
-2800z m5317 2457 c76 -40 115 -106 121 -203 10 -153 -73 -261 -215 -280 -153
-20 -283 96 -283 252 0 106 45 190 125 231 62 33 189 32 252 0z m-2822 -22 l0
-40 -123 0 -122 0 0 -62 0 -62 108 -3 107 -3 0 -35 0 -35 -105 -5 -105 -5 -5
-100 -5 -100 -45 0 -45 0 -3 235 c-1 129 0 240 3 248 3 10 42 12 172 10 l168
-3 0 -40z m303 -14 c81 -215 152 -413 152 -426 0 -13 -9 -15 -41 -13 -43 3
-46 5 -75 71 l-17 38 -95 -3 -95 -3 -15 -45 c-8 -25 -20 -48 -26 -52 -14 -10
-84 -10 -89 0 -3 4 6 34 18 67 13 33 52 137 86 230 34 94 67 176 72 183 6 8
28 12 57 11 l46 -2 22 -56z m565 35 c43 -21 47 -43 14 -74 l-23 -21 -34 20
c-28 17 -46 20 -98 17 -59 -4 -67 -7 -98 -40 -118 -130 -8 -342 155 -298 21 5
44 17 51 25 16 20 39 19 62 -2 40 -36 16 -66 -81 -98 -142 -47 -291 37 -321
181 -28 134 25 251 135 301 43 19 189 13 238 -11z m475 -23 l3 -43 -130 0
-131 0 0 -60 0 -60 115 0 c124 0 134 -4 122 -53 -6 -21 -10 -22 -119 -22
l-113 0 -3 -62 c-3 -60 -2 -63 24 -69 14 -4 73 -4 130 -1 103 5 104 5 110 -18
3 -13 3 -33 -1 -45 -6 -20 -11 -20 -178 -18 l-172 3 -3 235 c-1 129 0 240 3
248 3 10 42 12 172 10 l168 -3 3 -42z m357 36 c61 -15 97 -56 102 -116 4 -42
1 -53 -21 -80 l-26 -31 29 -30 c35 -34 46 -69 37 -116 -17 -88 -88 -118 -267
-114 l-114 3 -3 235 c-1 129 0 240 2 247 7 17 198 18 261 2z m551 -8 c52 -24
108 -90 124 -147 17 -59 8 -159 -18 -210 -39 -76 -135 -134 -222 -134 -96 0
-206 73 -234 157 -18 54 -21 141 -5 196 12 46 69 111 118 137 50 26 180 27
237 1z m866 -98 l3 -117 79 94 c108 130 120 140 166 140 21 0 41 -3 44 -8 2
-4 -29 -46 -69 -92 -41 -47 -74 -88 -75 -91 0 -4 36 -68 80 -144 44 -76 80
-144 80 -151 0 -18 -70 -19 -92 -1 -8 6 -42 59 -73 116 l-58 105 -44 -50 c-43
-48 -44 -50 -41 -112 3 -57 1 -63 -18 -68 -12 -3 -33 -4 -45 -2 l-24 3 -3 235
c-1 129 0 240 2 247 3 8 22 13 45 13 l40 0 3 -117z m856 93 c46 -24 72 -71 72
-129 0 -58 -19 -98 -62 -129 -27 -19 -50 -24 -128 -28 l-95 -5 -5 -90 -5 -90
-40 0 -40 0 -3 235 c-1 129 0 241 3 249 8 21 258 11 303 -13z m244 -226 l-2
-245 -43 0 -42 0 -3 235 c-1 129 0 241 3 248 3 9 19 12 47 10 l41 -3 -1 -245z
m184 242 c7 -4 35 -42 64 -85 l53 -79 50 79 c27 43 55 81 61 85 13 9 90 10 99
2 7 -7 -4 -25 -90 -148 -35 -48 -60 -93 -56 -100 4 -6 40 -59 80 -118 41 -59
72 -112 68 -118 -3 -5 -26 -10 -50 -10 l-44 0 -58 89 c-32 49 -60 90 -63 90
-3 0 -25 -32 -50 -71 -63 -100 -72 -108 -125 -108 -26 0 -45 5 -45 11 0 10 17
36 124 187 l37 54 -75 112 c-42 62 -76 118 -76 124 0 13 77 17 96 4z m759 -37
l0 -40 -125 -2 c-69 -1 -128 -3 -132 -3 -5 0 -8 -27 -8 -60 l0 -60 120 0 120
0 0 -35 0 -35 -102 -1 c-57 -1 -110 -2 -118 -3 -12 -1 -15 -15 -15 -66 l0 -65
130 0 130 0 0 -40 0 -40 -175 0 -175 0 -3 235 c-1 129 0 240 3 248 3 10 43 12
177 10 l173 -3 0 -40z m183 -162 c2 -181 4 -202 20 -207 9 -3 64 -5 122 -3
l105 2 3 -42 3 -43 -169 0 -169 0 -7 77 c-8 103 -8 408 1 417 4 4 25 6 48 4
l40 -3 3 -202z m310 -710 c104 -42 170 -116 216 -242 21 -55 21 -70 24 -1421
2 -934 -1 -1385 -8 -1427 -29 -171 -131 -274 -310 -312 -42 -9 -776 -11 -2995
-9 -2808 3 -2942 4 -2993 21 -67 23 -138 94 -190 192 l-37 70 -3 1385 c-2 968
0 1404 8 1449 14 81 58 168 106 211 58 51 154 91 237 100 39 4 1382 7 2982 6
l2910 -1 53 -22z"/>
<path d="M5104 5180 c-36 -24 -74 -101 -74 -152 0 -42 30 -106 61 -134 77 -68
194 -43 240 52 41 85 11 202 -61 239 -42 22 -128 19 -166 -5z"/>
<path d="M2715 5148 c-23 -62 -55 -164 -55 -175 0 -9 18 -13 65 -13 50 0 65 3
65 14 0 18 -60 186 -66 186 -3 0 -7 -6 -9 -12z"/>
<path d="M4027 5193 c-4 -3 -7 -33 -7 -65 l0 -58 70 0 c62 0 74 3 95 25 30 29
31 45 4 79 -18 23 -27 26 -88 26 -37 0 -71 -3 -74 -7z"/>
<path d="M4027 4993 c-4 -3 -7 -35 -7 -70 l0 -63 80 0 c73 0 83 2 106 26 42
41 21 88 -46 105 -35 9 -125 10 -133 2z"/>
<path d="M4553 5185 c-87 -38 -110 -192 -41 -271 83 -94 207 -74 259 41 35 77
18 157 -46 214 -30 26 -43 31 -88 31 -29 -1 -67 -7 -84 -15z"/>
<path d="M6250 5125 c0 -84 -7 -78 92 -77 69 1 96 14 104 47 17 69 -29 105
-136 105 l-60 0 0 -75z"/>
<path d="M5361 3708 c-13 -40 -27 -86 -32 -103 -4 -16 -35 -120 -69 -230 -34
-110 -66 -216 -72 -235 -5 -19 -22 -75 -38 -125 -15 -49 -56 -182 -90 -295
-34 -113 -84 -275 -110 -360 -51 -161 -124 -402 -190 -623 -21 -72 -34 -130
-29 -133 5 -3 40 -14 76 -25 75 -21 76 -21 94 46 6 22 28 96 49 165 21 69 55
179 75 245 20 66 52 170 71 230 46 151 229 749 263 865 16 52 54 178 86 280
89 291 95 314 87 321 -4 4 -33 14 -64 23 -32 9 -63 19 -71 21 -9 4 -20 -17
-36 -67z"/>
<path d="M4102 3037 l-372 -372 372 -372 c316 -315 375 -370 388 -360 8 7 34
33 58 58 l43 46 -311 311 c-170 171 -310 314 -310 319 0 4 140 147 310 318
171 170 310 310 310 311 0 1 -112 114 -114 114 -1 0 -169 -168 -374 -373z"/>
<path d="M5703 3351 l-53 -57 310 -309 c171 -170 310 -314 310 -319 0 -5 -140
-149 -310 -319 l-311 -311 58 -58 58 -58 372 372 373 373 -372 372 c-205 205
-375 372 -378 372 -3 -1 -29 -27 -57 -58z"/>
</g>
</svg>
