<svg xmlns="http://www.w3.org/2000/svg" viewBox="0 0 256 95.643" width="256" height="96" fill="#00acd7"><path d="M19.32 28.96c-.5 0-.623-.25-.374-.623l2.617-3.365c.25-.374.872-.623 1.37-.623H67.43c.5 0 .623.374.374.748l-2.12 3.24c-.25.374-.872.748-1.246.748l-45.12-.125zM.5 40.427c-.5 0-.623-.25-.374-.623l2.617-3.365c.25-.374.872-.623 1.37-.623H60.95c.5 0 .748.374.623.748l-.997 2.99c-.125.5-.623.748-1.122.748L.5 40.427zm30.163 11.467c-.5 0-.623-.374-.374-.748l1.745-3.116c.25-.374.748-.748 1.246-.748h24.928c.5 0 .748.374.748.872l-.25 2.99c0 .5-.5.872-.872.872l-27.172-.125zm129.38-25.178L139.1 32.2c-1.87.5-1.994.623-3.615-1.246-1.87-2.12-3.24-3.5-5.858-4.736-7.852-3.864-15.456-2.742-22.56 1.87-8.476 5.484-12.838 13.586-12.714 23.682.125 9.97 6.98 18.198 16.827 19.57 8.476 1.122 15.58-1.87 21.19-8.226 1.122-1.37 2.12-2.867 3.365-4.612H111.68c-2.617 0-3.24-1.62-2.368-3.74 1.62-3.864 4.612-10.345 6.357-13.586.374-.748 1.246-1.994 3.116-1.994h45.37c-.25 3.365-.25 6.73-.748 10.096-1.37 8.974-4.736 17.2-10.22 24.43-8.974 11.84-20.69 19.195-35.523 21.19-12.215 1.62-23.557-.748-33.53-8.226C74.9 79.69 69.675 70.466 68.304 59c-1.62-13.586 2.368-25.8 10.595-36.52 8.85-11.592 20.566-18.946 34.9-21.563 11.716-2.12 22.934-.748 33.03 6.107 6.606 4.362 11.342 10.345 14.46 17.575.748 1.122.25 1.745-1.246 2.12z"/><path d="M201.297 95.643c-11.342-.25-21.688-3.5-30.413-10.97-7.354-6.357-11.966-14.46-13.46-24.056-2.244-14.085 1.62-26.55 10.096-37.642 9.1-11.966 20.067-18.198 34.9-20.815 12.714-2.244 24.68-.997 35.523 6.357 9.847 6.73 15.954 15.83 17.575 27.795 2.12 16.827-2.742 30.537-14.334 42.254-8.226 8.35-18.322 13.586-29.914 15.954-3.365.623-6.73.748-9.97 1.122zm29.665-50.355c-.125-1.62-.125-2.867-.374-4.113-2.244-12.34-13.586-19.32-25.427-16.577-11.592 2.617-19.07 9.97-21.812 21.688-2.244 9.722 2.493 19.57 11.467 23.557 6.855 2.99 13.71 2.617 20.317-.748 9.847-5.1 15.206-13.087 15.83-23.807z"/></svg>