<?xml version="1.0" encoding="utf-8"?>
<!-- Generator: Adobe Illustrator 16.0.0, SVG Export Plug-In . SVG Version: 6.00 Build 0)  -->
<svg version="1.2" baseProfile="tiny" id="Layer_1" xmlns="http://www.w3.org/2000/svg" xmlns:xlink="http://www.w3.org/1999/xlink"
	 x="0px" y="0px" width="1000px" height="1000px" viewBox="0 0 1000 1000" xml:space="preserve">
<g>
	<path d="M103.788,453.995c16.13-7.923,33.985-11.683,51.94-10.939c34.73,1.2,53.808,18.811,54.564,53.363
		c0.845,36.198,0.578,72.084,0.444,108.237c0,14.721-3.869,18.099-18.41,18.099h-20.145c-12.852,0-16.854-3.913-17.121-16.853
		v-96.898c0-14.986-7.071-21.168-22.234-20.545c-2.64,0.045-5.271,0.297-7.872,0.756c-19.877,4.047-21.034,5.469-21.034,25.747
		v86.359c0,18.455-3.157,21.567-21.345,21.567H62.432c-9.472,0-13.652-4.446-14.275-14.229V380.487
		c0-16.676,3.558-20.188,19.967-20.188h17.787c13.786,0,18.01,3.868,18.278,17.787c0.4,20.856,0,41.711,0,62.523
		C103.788,444.435,103.788,448.57,103.788,453.995z"/>
	<path d="M400.665,538.532c-1.201,9.604-1.913,21.921-4.448,33.929c-4.01,27.05-25.009,48.428-51.985,52.919
		c-18.435,3.959-37.525,3.717-55.853-0.713c-23.224-4.475-41.728-22.043-47.404-45.003c-8.398-28.961-8.398-59.709,0-88.671
		c8.894-30.417,32.15-46.737,66.215-47.895c12.29-0.655,24.614,0.106,36.731,2.268c32.151,6.449,50.383,28.239,54.52,63.813
		C399.464,518.209,399.774,526.924,400.665,538.532z M344.544,539.243c-0.623-9.918-0.978-16.677-1.602-23.348
		c-0.39-3.497-1.106-6.949-2.134-10.317c-2.041-11.221-12.242-19.077-23.612-18.187c-11.09-0.839-21.018,6.844-22.992,17.787
		c-5.043,19.994-5.043,40.929,0,60.923c2.075,11.133,12.407,18.767,23.658,17.476c10.659,0.736,20.195-6.588,22.234-17.074
		c1.973-9.016,3.457-18.131,4.448-27.305l0,0V539.243z"/>
	<path d="M756.374,511.583c2.446-18.588-1.69-24.324-19.61-23.48c-14.605,1.233-29.116,3.386-43.447,6.447
		c-12.141,2.18-21.034-0.889-22.723-10.315c-2.758-15.563-1.69-28.905,10.805-32.64c28.868-9.497,59.761-11.034,89.428-4.448
		c26.948,6.447,40.021,24.279,40.021,53.363v102.989c0,7.783,0,15.788-9.248,18.812c-10.298,3.755-21.845,0.578-28.772-7.916
		l-2.846-4.135c-15.77,12.616-35.647,18.952-55.81,17.787c-43.801-1.6-68.972-43.357-49.939-83.067
		c8.894-18.899,26.683-24.859,45.05-27.793C725.112,514.828,740.81,513.361,756.374,511.583z M757.22,541.91
		c-10.629,1.601-19.967,2.489-29.038,4.448c-9.461,1.228-16.604,9.183-16.811,18.721c-1.999,9.583,3.071,19.24,12.096,23.034
		c8.894,3.469,27.793,0,32.151-6.046c0.837-1.172,1.301-2.566,1.333-4.003c0.269-11.696,0.269-23.348,0.269-36.287l0,0V541.91z"/>
	<path d="M438.774,449.281v-22.99c-0.809-7.047,3.742-13.599,10.629-15.298c9.068-3.04,18.286-5.623,27.615-7.738
		c6.735-2.237,14.01,1.411,16.248,8.146c0.598,1.8,0.79,3.712,0.562,5.595c0.311,9.917,0,19.745,0,30.773h26.37
		c12.852,0.312,17.254,4.445,17.789,17.787c0.711,27.037-0.756,28.551-27.482,28.551h-15.521c-0.414,2.412-0.696,4.848-0.845,7.291
		v57.056c0,17.787,5.337,23.212,22.635,24.457c15.164,1.112,19.301,4.448,19.301,16.81c0.533,19.699-3.471,26.37-19.301,27.304
		c-12.557,0.945-25.181,0.303-37.577-1.911c-25.747-5.204-39.621-21.926-40.467-49.139c-0.756-23.747-0.311-47.539-0.399-71.152
		V494.15h-15.564c-7.327,0.589-13.75-4.859-14.363-12.184c0-0.416,0-0.815,0-1.201c-2.136-18.188,1.111-23.035,18.41-27.928
		L438.774,449.281z"/>
	<path d="M632.172,559.878c0,30.814,0.578,61.632,0,92.448c-0.15,35.538-29.082,64.227-64.618,64.075
		c-3.38-0.015-6.755-0.294-10.091-0.839c-12.406-1.556-16.81-6.447-16.987-19.299v-11.43c0.534-10.761,3.87-14.497,14.542-16.454
		c16.453-3.066,21.835-9.25,21.878-26.457V466.669c0-14.854,3.782-18.812,18.679-19.299h20.232
		c11.963,0.532,16.453,4.891,16.541,16.94v94.987L632.172,559.878z"/>
	<path d="M880.576,459.953c14.568-10.452,31.927-16.322,49.851-16.854c17.787,0,21.879,3.736,21.834,21.346v7.916
		c0,11.385-4.713,15.431-15.831,16.587c-10.465,1.277-20.855,3.103-31.128,5.47c-6.892,1.469-9.517,5.648-9.383,13.341
		c0.532,32.151,0,64.035,0,96.01c0,15.697-3.426,18.987-19.301,19.299h-22.901c-6.584,0.538-12.358-4.363-12.896-10.949
		c-0.064-0.795-0.051-1.597,0.045-2.39V461.821c-0.51-6.586,4.417-12.34,11.003-12.85c0.009-0.002,0.017-0.002,0.025-0.002h0.533
		C863.5,447.102,875.15,445.368,880.576,459.953z"/>
	<path fill="#EE4854" d="M626.213,416.063c10.051-36.109,6.449-54.297-11.207-57.811c2.713,12.274,5.736,24.859-7.158,33.352
		c-6.761,4.447-12.096,2.757-24.059-6.448c-5.515,11.34-3.646,22.635-1.112,34.73c-17.164-2.979-30.684-10.095-36.952-26.681
		c-6.468-15.069-2.926-32.568,8.893-43.936c4.129-4.192,8.592-8.044,13.34-11.518c19.301-14.497,23.035-28.549,12.852-50.339
		c-0.455-1.248-0.826-2.525-1.11-3.824c21.459,3.261,41.753,11.871,59.009,25.037c37.623,30.772,33.088,86.047-8.448,106.371
		C628.856,415.104,627.484,415.464,626.213,416.063z"/>
</g>
</svg>
