<svg id="Layer_1" enable-background="new 0 0 464 464" height="512" viewBox="0 0 464 464" width="512" xmlns="http://www.w3.org/2000/svg"><path d="m464 64v336c0 17.67-14.33 32-32 32h-400c-17.67 0-32-14.33-32-32v-336c0-17.67 14.33-32 32-32h400c17.67 0 32 14.33 32 32z" fill="#83f8fb"/><path d="m432.107 82h-350.107c-17.673 0-32 14.327-32 32v286.107c0 32.543-50 34.259-50-.107v-336c0-17.673 14.327-32 32-32h400c34.366 0 32.65 50 .107 50z" fill="#bbfbff"/><path d="m464 64v64h-464v-64c0-17.67 14.33-32 32-32h400c17.67 0 32 14.33 32 32z" fill="#4d4e59"/><path d="m432.107 82h-350.107c-17.673 0-32 14.327-32 32v14h-50v-64c0-17.673 14.327-32 32-32h400c34.366 0 32.65 50 .107 50z" fill="#585966"/><path d="m32.08 81.57c-.857-8.858 5.642-16.652 14.35-17.49 9.086-.96 17.57 6.222 17.57 15.92 0 8.153-6.21 15.129-14.43 15.92-8.952.862-16.665-5.742-17.49-14.35z" fill="#ff6d7a"/><path d="m80.08 81.57c-.863-8.918 5.7-16.657 14.35-17.49 9.158-.968 17.57 6.329 17.57 15.92 0 8.212-6.289 15.136-14.43 15.92-8.872.854-16.658-5.663-17.49-14.35z" fill="#ffec8f"/><path d="m128.08 81.57c-.856-8.852 5.644-16.652 14.35-17.49 9.126-.964 17.57 6.292 17.57 15.92 0 8.25-6.322 15.14-14.43 15.92-8.872.854-16.658-5.663-17.49-14.35z" fill="#cdfdaa"/><g fill="#4d4e59"><path d="m114 212.155c-8.836 0-16 7.163-16 16v28.845h-14v-28.845c0-8.837-7.164-16-16-16s-16 7.163-16 16v89.689c0 8.837 7.164 16 16 16s16-7.163 16-16v-28.844h14v28.845c0 8.837 7.164 16 16 16s16-7.163 16-16v-89.689c0-8.837-7.164-16.001-16-16.001z"/><path d="m209 212h-48c-8.836 0-16 7.164-16 16s7.164 16 16 16h8v74c0 8.837 7.164 16 16 16s16-7.163 16-16v-74h8c8.836 0 16-7.164 16-16s-7.164-16-16-16z"/><path d="m367.513 212.155h-18.203c-8.836 0-16 7.163-16 16v89.689c0 8.837 7.164 16 16 16s16-7.163 16-16v-15.654c29.3 0 46.879-21.444 46.879-45.358 0-24.635-20.041-44.677-44.676-44.677zm0 58.035h-2.203v-26.034c20.964-.001 18.009 26.034 2.203 26.034z"/><path d="m303 212h-48c-8.836 0-16 7.164-16 16s7.164 16 16 16h8v74c0 8.837 7.164 16 16 16s16-7.163 16-16v-74h8c8.836 0 16-7.164 16-16s-7.164-16-16-16z"/></g></svg>