<svg width="32" height="32" viewBox="0 0 32 32" fill="none" xmlns="http://www.w3.org/2000/svg">
<path fill-rule="evenodd" clip-rule="evenodd" d="M15.3634 3C14.9617 3 14.6361 3.32563 14.6361 3.72731V5.93506C9.71452 6.28285 5.75881 10.1283 5.23978 15.0007H3.72731C3.32563 15.0007 3 15.3263 3 15.728C3 16.1297 3.32563 16.4553 3.72731 16.4553H5.18838C5.27287 18.8629 6.19323 21.0579 7.66817 22.759L6.72758 23.6996C6.44355 23.9836 6.44355 24.4441 6.72758 24.7282C7.01161 25.0122 7.47212 25.0122 7.75615 24.7282L8.69671 23.7876C10.3116 25.1879 12.3716 26.0884 14.6361 26.2485V27.7285C14.6361 28.1302 14.9617 28.4558 15.3634 28.4558C15.7651 28.4558 16.0907 28.1302 16.0907 27.7285V26.2486C18.4092 26.0852 20.5133 25.1456 22.145 23.6881L23.4424 24.9855C23.7264 25.2695 24.1869 25.2695 24.471 24.9855C24.755 24.7014 24.755 24.2409 24.471 23.9569L23.1584 22.6444C24.5761 20.9598 25.4577 18.8092 25.5403 16.4553H27.7285C28.1302 16.4553 28.4558 16.1297 28.4558 15.728C28.4558 15.3263 28.1302 15.0007 27.7285 15.0007H25.4889C24.9698 10.1277 21.0132 6.28189 16.0907 5.93493V3.72731C16.0907 3.32563 15.7651 3 15.3634 3ZM14.6361 7.94139C10.8199 8.27795 7.75597 11.2343 7.25412 15.0007H11.1382C11.5635 13.3483 12.9323 12.0746 14.6361 11.7883V7.94139ZM16.0907 11.7879C17.7956 12.0735 19.1655 13.3475 19.591 15.0007H23.4746C22.9726 11.2337 19.9078 8.277 16.0907 7.94123V11.7879ZM23.5387 16.4553H19.7135C19.5487 18.453 18.0383 20.0692 16.0907 20.3954V24.2423C20.1503 23.8852 23.3591 20.5634 23.5387 16.4553ZM14.6361 24.2421V20.395C12.6897 20.0679 11.1804 18.4522 11.0157 16.4553H7.18994C7.36953 20.5628 10.5774 23.8842 14.6361 24.2421ZM24.7276 7.75673L23.0602 9.42412C22.7422 9.05737 22.3984 8.71358 22.0316 8.39557L23.699 6.72816C23.983 6.44413 24.4435 6.44413 24.7276 6.72816C25.0116 7.01219 25.0116 7.4727 24.7276 7.75673ZM7.49953 6.98545L8.81173 8.29765C8.44021 8.61032 8.09136 8.94907 7.768 9.31107L6.47096 8.01402C6.18693 7.72999 6.18693 7.26948 6.47096 6.98545C6.75499 6.70142 7.2155 6.70142 7.49953 6.98545ZM15.3646 18.4555C16.6701 18.4555 17.7285 17.3972 17.7285 16.0916C17.7285 14.7861 16.6701 13.7278 15.3646 13.7278C14.0591 13.7278 13.0007 14.7861 13.0007 16.0916C13.0007 17.3972 14.0591 18.4555 15.3646 18.4555Z" fill="white"/>
</svg>
