<?xml version="1.0" standalone="no"?>
 <!DOCTYPE svg PUBLIC "-//W3C//DTD SVG 20010904//EN"
  "http://www.w3.org/TR/2001/REC-SVG-20010904/DTD/svg10.dtd">
 <svg version="1.0" xmlns="http://www.w3.org/2000/svg"
  width="1200.000000pt" height="628.000000pt" viewBox="0 0 1200.000000 628.000000"
  preserveAspectRatio="xMidYMid meet">
 <metadata>
 Created by potrace 1.16, written by Peter Selinger 2001-2019
 </metadata>
 <g transform="translate(0.000000,628.000000) scale(0.100000,-0.100000)"
 fill="#000000" stroke="none">
 <path d="M3110 4201 c-82 -25 -158 -99 -185 -181 -46 -140 29 -295 168 -347
 57 -21 156 -16 212 11 179 85 213 332 63 460 -66 57 -177 81 -258 57z"/>
 <path d="M5090 3415 l0 -54 68 -3 67 -3 0 -190 0 -190 -65 -5 -65 -5 0 -55 0
 -55 193 -3 192 -2 0 59 0 60 -62 3 -63 3 0 190 0 190 63 3 62 3 0 54 0 55
 -195 0 -195 0 0 -55z"/>
 <path d="M5710 3415 l0 -54 68 -3 67 -3 5 -250 5 -250 58 -3 57 -3 0 244 c0
 176 3 246 12 255 7 7 39 12 75 12 l63 0 0 55 0 55 -205 0 -205 0 0 -55z"/>
 <path d="M6340 3160 l0 -310 178 2 177 3 3 57 3 57 -118 3 -118 3 -3 67 -3 67
 108 3 108 3 3 52 3 52 -108 3 -108 3 0 65 0 65 118 3 117 3 0 54 0 55 -180 0
 -180 0 0 -310z"/>
 <path d="M6950 3160 l0 -311 58 3 57 3 5 105 5 105 30 0 c27 0 33 -8 85 -105
 l55 -105 63 -3 c44 -2 62 1 62 9 0 7 -27 59 -60 116 l-60 102 43 43 c43 43 67
 99 67 154 0 52 -45 130 -91 161 -41 27 -48 28 -181 31 l-138 4 0 -312z m240
 183 c35 -23 40 -33 40 -74 0 -54 -36 -83 -103 -84 l-52 0 -3 74 c-2 41 -1 80
 2 88 8 19 86 17 116 -4z"/>
 <path d="M7781 3448 c-5 -13 -59 -148 -120 -301 -61 -152 -111 -282 -111 -288
 0 -6 24 -9 62 -7 l63 3 15 40 c25 67 22 65 141 65 l110 0 24 -55 25 -55 54 0
 c30 0 57 4 60 9 3 4 -49 144 -115 310 l-121 301 -39 0 c-32 0 -41 -4 -48 -22z
 m93 -292 c34 -89 31 -96 -44 -96 -72 0 -76 7 -50 86 39 119 52 121 94 10z"/>
 <path d="M8312 3163 l3 -308 150 0 c166 1 190 7 239 65 60 72 54 164 -15 234
 l-40 39 23 24 c34 37 38 136 6 182 -41 61 -75 71 -230 71 l-138 0 2 -307z
 m242 176 c60 -47 14 -123 -73 -117 l-46 3 -3 54 c-2 29 -1 60 2 67 9 22 89 18
 120 -7z m19 -230 c35 -16 51 -55 37 -89 -16 -39 -47 -52 -115 -48 l-60 3 -3
 59 c-2 32 -1 65 2 72 7 17 104 19 139 3z"/>
 <path d="M8970 3466 c-3 -2 -4 -142 -2 -310 l3 -306 162 2 162 3 0 55 0 55
 -95 3 c-52 2 -98 6 -103 11 -4 4 -9 116 -10 247 l-2 239 -55 3 c-31 2 -58 1
 -60 -2z"/>
 <path d="M9512 3163 l3 -308 180 0 180 0 0 55 0 55 -117 3 c-133 3 -133 2
 -126 93 l3 44 110 5 110 5 3 53 3 52 -103 0 c-68 0 -108 4 -116 12 -16 16 -15
 103 1 116 7 6 62 13 123 14 l109 3 0 50 0 50 -183 3 -182 2 2 -307z"/>
 <path d="M2320 3411 c-160 -49 -240 -234 -166 -386 100 -204 388 -205 493 -1
 22 41 27 64 26 121 0 82 -18 128 -71 187 -51 57 -121 88 -197 87 -33 0 -71 -4
 -85 -8z"/>
 </g>
 </svg>