<?xml version="1.0" encoding="iso-8859-1"?>
<!-- Generator: Adobe Illustrator 19.0.0, SVG Export Plug-In . SVG Version: 6.00 Build 0)  -->
<svg version="1.1" id="Layer_1" xmlns="http://www.w3.org/2000/svg" xmlns:xlink="http://www.w3.org/1999/xlink" x="0px" y="0px"
	 viewBox="0 0 511.998 511.998" style="enable-background:new 0 0 511.998 511.998;" xml:space="preserve">
<g>
	<path style="fill:#DB380E;" d="M253.464,94.869c-23.658,16.639-50.471,35.498-64.838,66.699
		c-24.954,54.435,51.062,113.812,54.311,116.313c0.755,0.581,1.659,0.871,2.56,0.871c0.957,0,1.915-0.327,2.693-0.979
		c1.509-1.262,1.937-3.406,1.031-5.152c-0.275-0.53-27.561-53.53-26.547-91.552c0.359-13.243,18.892-28.266,38.512-44.171
		c17.97-14.568,38.34-31.079,50.258-50.394c26.164-42.516-2.916-84.322-3.213-84.74c-1.155-1.622-3.287-2.209-5.11-1.41
		c-1.821,0.804-2.83,2.773-2.414,4.72c0.059,0.277,5.714,27.923-10.022,56.406C284.203,73.25,269.959,83.268,253.464,94.869z"/>
	<path style="fill:#DB380E;" d="M353.137,113.617c1.669-1.257,2.159-3.55,1.15-5.38c-1.011-1.83-3.211-2.637-5.165-1.895
		c-4.019,1.528-98.416,37.915-98.416,81.88c0,30.307,12.946,46.317,22.399,58.009c3.708,4.586,6.909,8.546,7.964,11.927
		c2.97,9.743-4.066,27.353-7.025,33.317c-0.853,1.714-0.435,3.792,1.016,5.044c0.784,0.677,1.763,1.021,2.743,1.021
		c0.834,0,1.672-0.248,2.396-0.752c1.623-1.128,39.667-28.026,32.844-60.433c-2.542-12.318-8.595-21.318-13.936-29.26
		c-8.274-12.305-14.25-21.193-5.184-37.609C304.545,150.338,352.65,113.981,353.137,113.617z"/>
</g>
<g>
	<path style="fill:#73A1FB;" d="M107.418,298.236c-1.618,4.845-0.854,9.651,2.207,13.903c10.233,14.207,46.48,22.029,102.068,22.029
		c0.003,0,0.005,0,0.007,0c7.532,0,15.484-0.148,23.629-0.44c88.875-3.181,121.839-30.869,123.199-32.046
		c1.482-1.283,1.878-3.419,0.957-5.147c-0.922-1.727-2.909-2.595-4.808-2.072c-31.301,8.546-89.748,11.58-130.288,11.58
		c-45.363,0-68.465-3.268-74.121-5.681c2.902-3.985,20.802-11.101,42.983-15.464c2.12-0.416,3.577-2.374,3.367-4.524
		s-2.016-3.79-4.177-3.79C179.439,276.584,114.234,277.628,107.418,298.236z"/>
	<path style="fill:#73A1FB;" d="M404.812,269.718c-18.331,0-35.714,9.188-36.446,9.577c-1.695,0.908-2.555,2.852-2.09,4.72
		c0.467,1.865,2.144,3.176,4.067,3.178c0.389,0,39.102,0.317,42.608,22.436c3.106,19.082-36.629,50-52.202,60.304
		c-1.682,1.113-2.335,3.263-1.554,5.123c0.665,1.583,2.206,2.573,3.868,2.573c0.29,0,0.584-0.03,0.876-0.092
		c3.696-0.791,90.406-19.899,81.238-70.384C439.584,276.213,420.138,269.718,404.812,269.718z"/>
	<path style="fill:#73A1FB;" d="M345.347,363.755c0.302-1.617-0.371-3.262-1.717-4.207l-20.791-14.563
		c-1.014-0.71-2.295-0.933-3.485-0.618c-0.217,0.055-21.959,5.771-53.525,9.276c-12.528,1.405-26.56,2.147-40.582,2.147
		c-31.558,0-52.192-3.708-55.197-6.428c-0.398-0.764-0.272-1.111-0.201-1.304c0.546-1.518,3.472-3.322,5.358-4.036
		c2.083-0.771,3.206-3.033,2.558-5.157c-0.646-2.127-2.837-3.378-4.999-2.859c-20.856,5.033-31.054,12.071-30.312,20.918
		c1.318,15.686,37.65,23.737,68.365,25.865c4.417,0.302,9.194,0.455,14.195,0.455c0.003,0,0.005,0,0.008,0
		c51.074,0,116.55-16.025,117.204-16.188C343.825,366.666,345.044,365.375,345.347,363.755z"/>
	<path style="fill:#73A1FB;" d="M188.602,397.419c1.575-1.024,2.273-2.971,1.714-4.764c-0.557-1.793-2.234-2.971-4.118-2.946
		c-2.795,0.074-27.349,1.182-29.068,16.815c-0.52,4.672,0.818,8.941,3.979,12.686c8.816,10.448,32.614,16.658,72.741,18.984
		c4.747,0.285,9.569,0.428,14.334,0.428c51.015,0,85.373-15.973,86.812-16.653c1.395-0.66,2.315-2.031,2.397-3.571
		s-0.687-3.001-2.003-3.806l-26.275-16.04c-0.912-0.556-2.003-0.74-3.043-0.527c-0.166,0.035-16.849,3.495-42.026,6.913
		c-4.764,0.648-10.73,0.977-17.73,0.977c-25.15,0-53.124-4.109-58.489-6.8C187.749,398.613,187.848,397.975,188.602,397.419z"/>
	<path style="fill:#73A1FB;" d="M224.408,486.85c116.854-0.099,179.571-20.88,191.653-33.957c4.277-4.626,4.739-9.006,4.376-11.867
		c-0.898-7.04-7.311-11.35-8.038-11.818c-1.754-1.128-4.108-0.833-5.476,0.745c-1.365,1.578-1.397,3.884-0.027,5.461
		c0.737,0.948,1.163,2.535-0.992,4.692c-4.83,4.511-53.545,18.204-134.656,22.318c-11.111,0.577-22.765,0.871-34.636,0.873
		c-72.623,0-125.772-9.948-132.749-15.744c2.689-3.864,21.489-10.037,41.482-13.529c2.253-0.393,3.775-2.516,3.426-4.776
		c-0.349-2.259-2.432-3.814-4.709-3.519c-0.564,0.077-2.478,0.191-4.694,0.327c-32.988,2.014-71.109,6.503-73.098,23.5
		c-0.604,5.179,0.935,9.881,4.576,13.973c8.909,10.01,34.516,23.319,153.558,23.319C224.406,486.85,224.406,486.85,224.408,486.85z"
		/>
	<path style="fill:#73A1FB;" d="M439.013,456.578c-1.652-0.764-3.604-0.378-4.836,0.952c-0.171,0.185-17.74,18.556-70.564,29.344
		c-20.223,4.052-58.183,6.107-112.826,6.107c-54.745,0-106.838-2.154-107.357-2.176c-2.176-0.106-4.037,1.476-4.333,3.618
		c-0.297,2.14,1.083,4.158,3.184,4.658c0.542,0.128,55.135,12.918,129.779,12.918c35.801,0,70.639-2.907,103.548-8.645
		c61.361-10.757,65.657-41.183,65.81-42.473C441.632,459.078,440.662,457.342,439.013,456.578z"/>
</g>
<g>
</g>
<g>
</g>
<g>
</g>
<g>
</g>
<g>
</g>
<g>
</g>
<g>
</g>
<g>
</g>
<g>
</g>
<g>
</g>
<g>
</g>
<g>
</g>
<g>
</g>
<g>
</g>
<g>
</g>
</svg>
