<svg xmlns="http://www.w3.org/2000/svg" width="64" height="64" viewBox="0 0 64 64">
  <path d="M42.328.162C30.807.145 21.3 9.15 20.67 20.653 8.895 21.163-.298 31.014.007 42.795s9.995 21.143 21.78 21.043h33.487A8.69 8.69 0 0 0 64 55.167V21.77C63.973 9.823 54.276.154 42.328.162zM19.034 54.294c-4.492-1.164-8.014-4.65-9.222-9.13-.107-.43-.177-.87-.2-1.313h9.432zm2.606.39V34.228h8.894v20.464zm20.827 0h-8.86V17.42h8.86zm12.087-1.865a1.86 1.86 0 0 1-1.844 1.886h-7.133V24.622h8.978z" fill="#4651ff"/>
</svg>