<svg id="svg" version="1.1" xmlns="http://www.w3.org/2000/svg" xmlns:xlink="http://www.w3.org/1999/xlink" width="400" height="329.6" viewBox="0, 0, 400,329.6"><g id="svgg"><path id="path0" d="M124.320 213.685 C 124.320 213.866,123.652 214.015,122.836 214.015 C 121.737 214.015,121.352 214.143,121.352 214.509 C 121.352 214.817,121.041 215.004,120.528 215.004 C 120.074 215.004,119.703 215.153,119.703 215.334 C 119.703 215.515,119.332 215.664,118.879 215.664 C 118.366 215.664,118.054 215.851,118.054 216.158 C 118.054 216.430,117.832 216.653,117.560 216.653 C 117.288 216.653,117.065 216.801,117.065 216.983 C 117.065 217.164,116.836 217.312,116.555 217.312 C 115.876 217.312,113.108 220.064,113.108 220.739 C 113.108 221.031,112.960 221.270,112.778 221.270 C 112.597 221.270,112.448 221.492,112.448 221.764 C 112.448 222.036,112.307 222.259,112.134 222.259 C 111.961 222.259,111.578 222.815,111.282 223.495 C 110.986 224.176,110.608 224.990,110.442 225.305 C 110.276 225.620,110.140 226.529,110.140 227.325 C 110.140 228.210,109.948 228.933,109.646 229.184 C 109.282 229.485,109.151 230.285,109.151 232.192 C 109.151 234.281,109.248 234.790,109.646 234.790 C 110.019 234.790,110.140 235.193,110.140 236.439 C 110.140 237.345,110.289 238.087,110.470 238.087 C 110.651 238.087,110.800 238.607,110.800 239.242 C 110.800 239.876,110.931 240.396,111.091 240.396 C 111.251 240.396,111.469 240.655,111.576 240.973 C 111.927 242.017,113.175 243.693,113.603 243.693 C 113.945 243.693,114.757 244.604,114.757 244.989 C 114.757 245.183,114.916 245.342,115.110 245.342 C 115.507 245.342,116.406 246.158,116.406 246.519 C 116.406 246.897,117.513 247.629,118.102 247.640 C 118.400 247.646,118.729 247.873,118.833 248.145 C 118.938 248.417,119.324 248.640,119.693 248.640 C 120.061 248.640,120.363 248.788,120.363 248.969 C 120.363 249.151,120.882 249.299,121.517 249.299 C 122.152 249.299,122.671 249.448,122.671 249.629 C 122.671 249.836,124.760 249.959,128.277 249.959 C 131.794 249.959,133.883 249.836,133.883 249.629 C 133.883 249.448,134.402 249.299,135.037 249.299 C 135.672 249.299,136.191 249.151,136.191 248.969 C 136.191 248.788,136.493 248.640,136.861 248.640 C 137.230 248.640,137.616 248.417,137.721 248.145 C 137.825 247.873,138.117 247.650,138.370 247.650 C 138.623 247.650,138.829 247.502,138.829 247.321 C 138.829 247.139,139.105 246.991,139.443 246.991 C 139.780 246.991,140.335 246.620,140.675 246.167 C 141.016 245.713,141.482 245.342,141.711 245.342 C 141.940 245.342,142.127 245.152,142.127 244.920 C 142.127 244.688,142.424 244.285,142.786 244.023 C 143.149 243.762,143.446 243.421,143.446 243.267 C 143.446 243.113,143.631 242.780,143.858 242.527 C 144.911 241.353,145.095 241.038,145.095 240.410 C 145.095 240.031,145.311 239.736,145.589 239.736 C 145.917 239.736,146.084 239.409,146.084 238.766 C 146.084 238.233,146.232 237.705,146.414 237.593 C 146.595 237.481,146.744 236.433,146.744 235.265 C 146.744 234.069,146.888 233.141,147.073 233.141 C 147.255 233.141,147.403 232.556,147.403 231.841 C 147.403 231.127,147.255 230.450,147.073 230.338 C 146.892 230.226,146.744 229.253,146.744 228.175 C 146.744 227.089,146.597 226.216,146.414 226.216 C 146.232 226.216,146.084 225.712,146.084 225.097 C 146.084 224.407,145.895 223.906,145.589 223.788 C 145.317 223.684,145.095 223.297,145.095 222.929 C 145.095 222.560,144.946 222.259,144.765 222.259 C 144.584 222.259,144.435 222.036,144.435 221.764 C 144.435 221.492,144.213 221.270,143.941 221.270 C 143.666 221.270,143.446 220.976,143.446 220.610 C 143.446 220.247,143.298 219.951,143.116 219.951 C 142.935 219.951,142.786 219.791,142.786 219.595 C 142.786 219.038,140.919 217.312,140.315 217.312 C 139.702 217.312,138.829 216.552,138.829 216.017 C 138.829 215.823,138.458 215.664,138.005 215.664 C 137.552 215.664,137.181 215.515,137.181 215.334 C 137.181 215.153,136.825 215.004,136.391 215.004 C 135.957 215.004,135.517 214.782,135.412 214.509 C 135.282 214.170,134.752 214.015,133.728 214.015 C 132.907 214.015,132.234 213.866,132.234 213.685 C 132.234 213.484,130.695 213.355,128.277 213.355 C 125.859 213.355,124.320 213.484,124.320 213.685 M164.551 213.685 C 164.551 213.866,163.878 214.015,163.056 214.015 C 162.032 214.015,161.502 214.170,161.372 214.509 C 161.268 214.782,160.827 215.004,160.393 215.004 C 159.959 215.004,159.604 215.153,159.604 215.334 C 159.604 215.515,159.233 215.664,158.780 215.664 C 158.326 215.664,157.955 215.823,157.955 216.017 C 157.955 216.599,157.060 217.312,156.330 217.312 C 155.955 217.312,155.647 217.500,155.647 217.729 C 155.647 217.958,155.276 218.424,154.823 218.764 C 154.369 219.105,153.998 219.596,153.998 219.855 C 153.998 220.409,153.210 221.270,152.703 221.270 C 152.509 221.270,152.350 221.641,152.350 222.094 C 152.350 222.547,152.201 222.918,152.020 222.918 C 151.838 222.918,151.690 223.289,151.690 223.743 C 151.690 224.256,151.503 224.567,151.195 224.567 C 150.850 224.567,150.701 224.915,150.701 225.721 C 150.701 226.356,150.552 226.876,150.371 226.876 C 150.165 226.876,150.041 228.793,150.041 231.967 C 150.041 235.006,150.174 237.141,150.371 237.263 C 150.552 237.375,150.701 237.908,150.701 238.447 C 150.701 239.014,150.909 239.507,151.195 239.617 C 151.467 239.721,151.690 240.162,151.690 240.596 C 151.690 241.030,151.838 241.385,152.020 241.385 C 152.201 241.385,152.350 241.612,152.350 241.890 C 152.350 242.168,152.572 242.480,152.844 242.585 C 153.116 242.689,153.339 242.920,153.339 243.098 C 153.339 243.277,154.007 244.071,154.823 244.865 C 155.639 245.658,156.307 246.461,156.307 246.649 C 156.307 246.837,156.678 246.991,157.131 246.991 C 157.585 246.991,157.955 247.139,157.955 247.321 C 157.955 247.502,158.178 247.650,158.450 247.650 C 158.722 247.650,158.945 247.873,158.945 248.145 C 158.945 248.417,159.233 248.640,159.585 248.640 C 159.937 248.640,160.317 248.788,160.429 248.969 C 160.541 249.151,161.143 249.299,161.767 249.299 C 162.391 249.299,162.902 249.448,162.902 249.629 C 162.902 249.836,164.990 249.959,168.508 249.959 C 172.025 249.959,174.114 249.836,174.114 249.629 C 174.114 249.448,174.633 249.299,175.268 249.299 C 175.903 249.299,176.422 249.151,176.422 248.969 C 176.422 248.788,176.698 248.640,177.035 248.640 C 177.373 248.640,177.927 248.269,178.268 247.815 C 178.609 247.361,179.222 246.991,179.633 246.991 C 180.043 246.991,180.379 246.832,180.379 246.638 C 180.379 246.181,181.218 245.342,181.675 245.342 C 181.869 245.342,182.028 245.120,182.028 244.847 C 182.028 244.575,182.176 244.353,182.358 244.353 C 182.539 244.353,182.688 243.833,182.688 243.199 C 182.688 242.564,182.576 242.044,182.440 242.044 C 182.051 242.043,180.379 240.519,180.379 240.166 C 180.379 239.991,180.008 239.649,179.555 239.406 C 179.101 239.164,178.730 238.768,178.730 238.526 C 178.730 238.245,178.317 238.087,177.576 238.087 C 176.941 238.087,176.422 238.246,176.422 238.441 C 176.422 239.023,175.527 239.736,174.797 239.736 C 174.421 239.736,174.114 239.868,174.114 240.030 C 174.114 240.192,173.743 240.417,173.289 240.531 C 172.836 240.645,172.465 240.884,172.465 241.062 C 172.465 241.239,172.094 241.385,171.641 241.385 C 171.187 241.385,170.816 241.533,170.816 241.715 C 170.816 241.898,169.943 242.045,168.857 242.045 C 167.780 242.045,166.806 241.896,166.694 241.715 C 166.582 241.533,165.980 241.385,165.356 241.385 C 164.567 241.385,164.221 241.234,164.221 240.890 C 164.221 240.616,163.928 240.396,163.561 240.396 C 163.199 240.396,162.902 240.247,162.902 240.066 C 162.902 239.885,162.743 239.736,162.549 239.736 C 161.990 239.736,160.787 238.226,160.381 237.016 C 160.274 236.698,160.056 236.439,159.896 236.439 C 159.735 236.439,159.604 235.771,159.604 234.955 C 159.604 234.138,159.456 233.471,159.275 233.471 C 159.093 233.471,158.945 232.729,158.945 231.822 C 158.945 230.915,159.093 230.173,159.275 230.173 C 159.456 230.173,159.604 229.580,159.604 228.854 C 159.604 228.129,159.753 227.535,159.934 227.535 C 160.115 227.535,160.264 227.254,160.264 226.911 C 160.264 226.567,160.486 226.201,160.758 226.097 C 161.031 225.992,161.253 225.706,161.253 225.461 C 161.253 224.969,162.717 223.578,163.234 223.578 C 163.414 223.578,163.561 223.430,163.561 223.248 C 163.561 223.067,163.920 222.918,164.358 222.918 C 164.797 222.918,165.216 222.737,165.289 222.516 C 165.471 221.970,171.550 221.988,171.733 222.535 C 171.803 222.746,172.145 222.918,172.492 222.918 C 172.840 222.918,173.124 223.067,173.124 223.248 C 173.124 223.430,173.495 223.578,173.949 223.578 C 174.462 223.578,174.773 223.765,174.773 224.073 C 174.773 224.345,174.996 224.567,175.268 224.567 C 175.540 224.567,175.763 224.725,175.763 224.917 C 175.763 225.631,178.216 225.108,178.561 224.320 C 178.740 223.912,179.007 223.578,179.153 223.578 C 179.542 223.578,181.039 222.019,181.039 221.614 C 181.039 221.425,181.208 221.270,181.415 221.270 C 182.677 221.270,183.144 218.490,181.946 218.112 C 181.538 217.983,180.964 217.602,180.670 217.265 C 180.377 216.928,179.821 216.653,179.434 216.653 C 179.047 216.653,178.730 216.494,178.730 216.300 C 178.730 215.595,177.763 215.004,176.611 215.004 C 175.784 215.004,175.433 214.857,175.433 214.509 C 175.433 214.166,175.087 214.015,174.298 214.015 C 173.674 214.015,173.072 213.866,172.960 213.685 C 172.841 213.494,171.033 213.355,168.653 213.355 C 166.138 213.355,164.551 213.483,164.551 213.685 M237.428 213.685 C 237.428 213.866,237.205 214.015,236.933 214.015 C 236.661 214.015,236.439 214.237,236.439 214.509 C 236.439 214.782,236.297 215.004,236.124 215.004 C 235.951 215.004,235.712 215.523,235.592 216.158 C 235.473 216.793,235.244 217.312,235.083 217.312 C 234.922 217.312,234.790 217.683,234.790 218.137 C 234.790 218.590,234.641 218.961,234.460 218.961 C 234.279 218.961,234.130 219.314,234.130 219.745 C 234.130 220.176,233.908 220.714,233.636 220.940 C 233.364 221.166,233.141 221.703,233.141 222.134 C 233.141 222.566,232.993 222.918,232.811 222.918 C 232.630 222.918,232.481 223.273,232.481 223.708 C 232.481 224.142,232.259 224.582,231.987 224.686 C 231.698 224.797,231.492 225.292,231.492 225.876 C 231.492 226.426,231.344 226.876,231.162 226.876 C 230.981 226.876,230.833 227.246,230.833 227.700 C 230.833 228.153,230.687 228.524,230.509 228.524 C 230.331 228.524,230.093 228.895,229.979 229.349 C 229.865 229.802,229.640 230.173,229.478 230.173 C 229.316 230.173,229.184 230.692,229.184 231.327 C 229.184 231.962,229.035 232.481,228.854 232.481 C 228.673 232.481,228.524 232.852,228.524 233.306 C 228.524 233.819,228.337 234.130,228.030 234.130 C 227.722 234.130,227.535 234.442,227.535 234.955 C 227.535 235.408,227.387 235.779,227.205 235.779 C 227.024 235.779,226.876 236.132,226.876 236.563 C 226.876 236.994,226.653 237.532,226.381 237.758 C 226.109 237.983,225.886 238.521,225.886 238.952 C 225.886 239.383,225.738 239.736,225.556 239.736 C 225.375 239.736,225.227 240.107,225.227 240.561 C 225.227 241.014,225.078 241.385,224.897 241.385 C 224.716 241.385,224.567 241.745,224.567 242.186 C 224.567 242.626,224.345 243.209,224.073 243.481 C 223.800 243.753,223.578 244.283,223.578 244.659 C 223.578 245.035,223.430 245.342,223.248 245.342 C 223.067 245.342,222.918 245.713,222.918 246.167 C 222.918 246.679,222.732 246.991,222.424 246.991 C 222.057 246.991,221.929 247.376,221.929 248.475 L 221.929 249.959 226.381 249.959 C 230.613 249.959,230.833 249.926,230.833 249.299 C 230.833 248.937,230.981 248.640,231.162 248.640 C 231.344 248.640,231.492 248.285,231.492 247.851 C 231.492 247.417,231.715 246.976,231.987 246.872 C 232.297 246.753,232.481 246.248,232.481 245.517 C 232.481 244.877,232.630 244.353,232.811 244.353 C 232.993 244.353,233.141 244.045,233.141 243.670 C 233.141 242.151,233.645 242.045,240.867 242.045 L 247.650 242.045 247.650 242.869 C 247.650 243.322,247.799 243.693,247.980 243.693 C 248.162 243.693,248.310 244.213,248.310 244.847 C 248.310 245.654,248.459 246.002,248.805 246.002 C 249.112 246.002,249.299 246.313,249.299 246.826 C 249.299 247.279,249.448 247.650,249.629 247.650 C 249.810 247.650,249.959 248.021,249.959 248.475 C 249.959 248.988,250.146 249.299,250.453 249.299 C 250.725 249.299,250.948 249.448,250.948 249.629 C 250.948 249.832,252.597 249.959,255.235 249.959 L 259.522 249.959 259.522 248.805 C 259.522 248.170,259.373 247.650,259.192 247.650 C 259.011 247.650,258.862 247.349,258.862 246.981 C 258.862 246.612,258.640 246.225,258.368 246.121 C 258.096 246.017,257.873 245.659,257.873 245.326 C 257.873 244.994,257.725 244.630,257.543 244.518 C 257.362 244.406,257.214 244.002,257.214 243.620 C 257.214 242.767,256.197 240.396,255.831 240.396 C 255.685 240.396,255.565 239.959,255.565 239.426 C 255.565 238.892,255.416 238.364,255.235 238.252 C 255.054 238.140,254.905 237.756,254.905 237.398 C 254.905 237.040,254.683 236.662,254.411 236.558 C 254.138 236.453,253.916 236.013,253.916 235.579 C 253.916 235.145,253.768 234.790,253.586 234.790 C 253.405 234.790,253.256 234.340,253.256 233.790 C 253.256 233.206,253.051 232.712,252.762 232.601 C 252.490 232.496,252.267 232.056,252.267 231.622 C 252.267 231.188,252.119 230.833,251.937 230.833 C 251.756 230.833,251.608 230.462,251.608 230.008 C 251.608 229.555,251.476 229.184,251.315 229.184 C 251.153 229.184,250.924 228.664,250.805 228.030 C 250.686 227.395,250.447 226.876,250.274 226.876 C 250.100 226.876,249.959 226.505,249.959 226.051 C 249.959 225.598,249.810 225.227,249.629 225.227 C 249.448 225.227,249.299 224.925,249.299 224.557 C 249.299 224.188,249.077 223.802,248.805 223.697 C 248.526 223.590,248.310 223.099,248.310 222.573 C 248.310 222.059,248.162 221.547,247.980 221.434 C 247.799 221.322,247.650 220.868,247.650 220.426 C 247.650 219.930,247.460 219.621,247.156 219.621 C 246.848 219.621,246.661 219.309,246.661 218.796 C 246.661 218.343,246.513 217.972,246.331 217.972 C 246.150 217.972,246.002 217.453,246.002 216.818 C 246.002 216.183,245.853 215.664,245.672 215.664 C 245.491 215.664,245.342 215.384,245.342 215.042 C 245.342 213.844,243.959 213.355,240.572 213.355 C 238.696 213.355,237.428 213.488,237.428 213.685 M302.638 213.814 C 302.321 214.055,302.061 214.554,302.061 214.923 C 302.061 215.291,301.838 215.678,301.566 215.783 C 301.294 215.887,301.072 216.274,301.072 216.643 C 301.072 217.011,300.923 217.312,300.742 217.312 C 300.561 217.312,300.412 217.683,300.412 218.137 C 300.412 218.590,300.264 218.961,300.082 218.961 C 299.901 218.961,299.753 219.481,299.753 220.115 C 299.753 220.921,299.604 221.270,299.258 221.270 C 298.950 221.270,298.763 221.581,298.763 222.094 C 298.763 222.547,298.615 222.918,298.434 222.918 C 298.252 222.918,298.104 223.226,298.104 223.601 C 298.104 223.977,297.881 224.507,297.609 224.779 C 297.337 225.051,297.115 225.634,297.115 226.075 C 297.115 226.515,296.966 226.876,296.785 226.876 C 296.603 226.876,296.455 227.231,296.455 227.665 C 296.455 228.099,296.232 228.539,295.960 228.644 C 295.671 228.755,295.466 229.249,295.466 229.833 C 295.466 230.383,295.317 230.833,295.136 230.833 C 294.955 230.833,294.806 231.204,294.806 231.657 C 294.806 232.110,294.658 232.481,294.477 232.481 C 294.295 232.481,294.147 232.852,294.147 233.306 C 294.147 233.819,293.960 234.130,293.652 234.130 C 293.325 234.130,293.157 234.458,293.157 235.100 C 293.157 235.633,293.009 236.162,292.828 236.274 C 292.646 236.386,292.498 236.840,292.498 237.282 C 292.498 237.778,292.308 238.087,292.003 238.087 C 291.696 238.087,291.509 238.399,291.509 238.912 C 291.509 239.365,291.360 239.736,291.179 239.736 C 290.998 239.736,290.849 240.240,290.849 240.855 C 290.849 241.545,290.660 242.047,290.354 242.164 C 290.082 242.268,289.860 242.655,289.860 243.023 C 289.860 243.392,289.711 243.693,289.530 243.693 C 289.349 243.693,289.200 244.064,289.200 244.518 C 289.200 244.971,289.052 245.342,288.871 245.342 C 288.689 245.342,288.541 245.697,288.541 246.131 C 288.541 246.565,288.318 247.006,288.046 247.110 C 287.720 247.235,287.552 247.752,287.552 248.629 L 287.552 249.959 292.003 249.959 C 296.235 249.959,296.455 249.926,296.455 249.299 C 296.455 248.937,296.603 248.640,296.785 248.640 C 296.966 248.640,297.115 248.285,297.115 247.851 C 297.115 247.417,297.337 246.976,297.609 246.872 C 297.881 246.767,298.104 246.315,298.104 245.867 C 298.104 245.418,298.252 244.960,298.434 244.847 C 298.615 244.735,298.763 244.281,298.763 243.839 C 298.763 243.396,298.912 243.034,299.093 243.034 C 299.275 243.034,299.423 242.811,299.423 242.539 C 299.423 242.115,300.412 242.045,306.348 242.045 L 313.273 242.045 313.273 242.869 C 313.273 243.322,313.421 243.693,313.603 243.693 C 313.784 243.693,313.932 244.064,313.932 244.518 C 313.932 245.031,314.119 245.342,314.427 245.342 C 314.773 245.342,314.922 245.690,314.922 246.496 C 314.922 247.131,315.070 247.650,315.251 247.650 C 315.433 247.650,315.581 248.021,315.581 248.475 C 315.581 248.988,315.768 249.299,316.076 249.299 C 316.348 249.299,316.570 249.448,316.570 249.629 C 316.570 249.831,318.109 249.959,320.528 249.959 L 324.485 249.959 324.485 248.021 C 324.485 246.700,324.327 245.952,323.990 245.672 C 323.718 245.446,323.495 244.909,323.495 244.477 C 323.495 244.046,323.347 243.693,323.166 243.693 C 322.984 243.693,322.836 243.322,322.836 242.869 C 322.836 242.356,322.649 242.045,322.341 242.045 C 322.014 242.045,321.847 241.717,321.847 241.075 C 321.847 240.541,321.698 240.013,321.517 239.901 C 321.336 239.789,321.187 239.335,321.187 238.892 C 321.187 238.450,321.039 238.087,320.857 238.087 C 320.676 238.087,320.528 237.786,320.528 237.418 C 320.528 237.049,320.305 236.662,320.033 236.558 C 319.751 236.450,319.538 235.958,319.538 235.414 C 319.538 234.889,319.390 234.460,319.209 234.460 C 319.027 234.460,318.879 234.084,318.879 233.625 C 318.879 233.166,318.656 232.705,318.384 232.601 C 318.112 232.496,317.890 232.056,317.890 231.622 C 317.890 231.188,317.741 230.833,317.560 230.833 C 317.378 230.833,317.230 230.383,317.230 229.833 C 317.230 229.249,317.025 228.755,316.735 228.644 C 316.463 228.539,316.241 228.099,316.241 227.665 C 316.241 227.231,316.092 226.876,315.911 226.876 C 315.730 226.876,315.581 226.505,315.581 226.051 C 315.581 225.598,315.433 225.227,315.251 225.227 C 315.070 225.227,314.922 224.866,314.922 224.426 C 314.922 223.985,314.699 223.402,314.427 223.130 C 314.155 222.858,313.932 222.328,313.932 221.953 C 313.932 221.577,313.784 221.270,313.603 221.270 C 313.421 221.270,313.273 220.899,313.273 220.445 C 313.273 219.932,313.086 219.621,312.778 219.621 C 312.433 219.621,312.284 219.273,312.284 218.467 C 312.284 217.832,312.135 217.312,311.954 217.312 C 311.772 217.312,311.624 216.941,311.624 216.488 C 311.624 215.975,311.437 215.664,311.129 215.664 C 310.849 215.664,310.635 215.368,310.635 214.981 C 310.635 213.401,304.384 212.489,302.638 213.814 M103.627 213.941 C 99.751 214.017,98.928 214.118,98.928 214.519 C 98.928 214.786,98.769 215.004,98.575 215.004 C 98.118 215.004,97.279 215.843,97.279 216.300 C 97.279 216.494,97.124 216.653,96.935 216.653 C 96.487 216.653,94.971 218.169,94.971 218.617 C 94.971 218.806,94.765 218.961,94.514 218.961 C 94.263 218.961,93.811 219.481,93.509 220.115 C 93.208 220.750,92.820 221.270,92.647 221.270 C 92.474 221.270,92.333 221.429,92.333 221.623 C 92.333 222.007,91.521 222.918,91.179 222.918 C 90.904 222.918,90.025 223.797,90.025 224.073 C 90.025 224.415,89.114 225.227,88.729 225.227 C 88.535 225.227,88.376 225.386,88.376 225.580 C 88.376 226.033,87.538 226.876,87.088 226.876 C 86.861 226.876,86.710 224.684,86.652 220.528 L 86.562 214.180 82.358 214.087 L 78.153 213.995 78.153 231.977 L 78.153 249.959 82.240 249.959 C 87.154 249.959,86.727 250.573,86.727 243.501 C 86.727 239.871,86.844 238.087,87.080 238.087 C 87.465 238.087,88.376 237.276,88.376 236.933 C 88.376 236.658,89.255 235.779,89.530 235.779 C 89.920 235.779,90.684 236.716,90.684 237.193 C 90.684 237.453,91.055 237.944,91.509 238.284 C 91.962 238.625,92.333 239.091,92.333 239.320 C 92.333 239.549,92.556 239.736,92.828 239.736 C 93.106 239.736,93.322 240.031,93.322 240.411 C 93.322 240.782,93.656 241.442,94.064 241.879 C 95.301 243.202,95.631 243.650,95.631 244.009 C 95.631 244.198,95.779 244.353,95.960 244.353 C 96.142 244.353,96.290 244.575,96.290 244.847 C 96.290 245.120,96.513 245.342,96.785 245.342 C 97.057 245.342,97.284 245.602,97.290 245.919 C 97.303 246.632,98.046 247.650,98.552 247.650 C 98.759 247.650,98.928 247.805,98.928 247.995 C 98.928 250.076,109.796 251.060,110.087 249.005 C 110.162 248.473,109.920 247.977,109.345 247.483 C 108.875 247.079,108.491 246.588,108.491 246.390 C 108.491 246.193,108.120 245.661,107.667 245.207 C 107.214 244.754,106.843 244.228,106.843 244.038 C 106.843 243.848,106.620 243.693,106.348 243.693 C 106.076 243.693,105.853 243.417,105.853 243.080 C 105.853 242.743,105.334 241.916,104.699 241.243 C 104.064 240.570,103.545 239.807,103.545 239.548 C 103.545 239.289,103.397 239.077,103.215 239.077 C 103.034 239.077,102.885 238.854,102.885 238.582 C 102.885 238.310,102.726 238.087,102.532 238.087 C 101.950 238.087,101.237 237.192,101.237 236.462 C 101.237 236.075,101.022 235.779,100.742 235.779 C 100.470 235.779,100.247 235.589,100.247 235.357 C 100.247 235.125,99.951 234.721,99.588 234.460 C 99.225 234.199,98.928 233.741,98.928 233.444 C 98.928 233.147,98.557 232.625,98.104 232.284 C 97.650 231.944,97.279 231.478,97.279 231.249 C 97.279 231.020,97.074 230.833,96.823 230.833 C 96.356 230.833,95.973 229.639,96.212 228.924 C 96.285 228.704,96.530 228.524,96.757 228.524 C 96.983 228.524,97.367 228.153,97.609 227.700 C 97.852 227.246,98.184 226.876,98.348 226.876 C 98.689 226.876,99.588 226.039,99.588 225.721 C 99.588 225.379,100.499 224.567,100.883 224.567 C 101.078 224.567,101.237 224.416,101.237 224.231 C 101.237 224.045,102.275 222.871,103.545 221.622 C 104.941 220.247,105.853 219.078,105.853 218.661 C 105.853 218.282,106.021 217.972,106.227 217.972 C 106.432 217.972,106.840 217.696,107.134 217.360 C 107.427 217.023,108.001 216.642,108.409 216.513 C 108.983 216.332,109.151 216.030,109.151 215.182 C 109.151 213.807,109.261 213.832,103.627 213.941 M287.139 213.931 C 283.707 214.016,282.935 214.124,282.935 214.519 C 282.935 214.786,282.712 215.004,282.440 215.004 C 282.095 215.004,281.946 215.352,281.946 216.158 C 281.946 216.793,281.797 217.312,281.616 217.312 C 281.434 217.312,281.286 217.668,281.286 218.102 C 281.286 218.536,281.063 218.976,280.791 219.081 C 280.502 219.191,280.297 219.686,280.297 220.270 C 280.297 220.820,280.148 221.270,279.967 221.270 C 279.786 221.270,279.637 221.789,279.637 222.424 C 279.637 223.059,279.517 223.578,279.371 223.578 C 278.967 223.578,277.988 225.990,277.988 226.986 C 277.988 227.469,277.840 227.865,277.659 227.865 C 277.477 227.865,277.329 228.384,277.329 229.019 C 277.329 229.825,277.180 230.173,276.834 230.173 C 276.527 230.173,276.340 230.485,276.340 230.998 C 276.340 231.451,276.191 231.822,276.010 231.822 C 275.829 231.822,275.680 232.325,275.680 232.941 C 275.680 233.631,275.491 234.132,275.185 234.250 C 274.896 234.360,274.691 234.855,274.691 235.439 C 274.691 235.989,274.542 236.439,274.361 236.439 C 274.180 236.439,274.031 236.083,274.031 235.649 C 274.031 235.215,273.809 234.775,273.537 234.671 C 273.248 234.560,273.042 234.065,273.042 233.481 C 273.042 232.931,272.894 232.481,272.712 232.481 C 272.531 232.481,272.383 231.962,272.383 231.327 C 272.383 230.692,272.234 230.173,272.053 230.173 C 271.871 230.173,271.723 229.820,271.723 229.389 C 271.723 228.958,271.500 228.420,271.228 228.195 C 270.956 227.969,270.734 227.431,270.734 227.000 C 270.734 226.569,270.585 226.216,270.404 226.216 C 270.223 226.216,270.074 225.712,270.074 225.097 C 270.074 224.407,269.885 223.906,269.580 223.788 C 269.308 223.684,269.085 223.297,269.085 222.929 C 269.085 222.560,268.937 222.259,268.755 222.259 C 268.574 222.259,268.425 221.665,268.425 220.940 C 268.425 219.987,268.288 219.621,267.931 219.621 C 267.585 219.621,267.436 219.273,267.436 218.467 C 267.436 217.832,267.288 217.312,267.106 217.312 C 266.925 217.312,266.777 216.941,266.777 216.488 C 266.777 216.035,266.639 215.664,266.470 215.664 C 266.301 215.664,266.116 215.330,266.058 214.922 C 265.955 214.197,265.843 214.178,261.253 214.088 L 256.554 213.997 256.554 215.140 C 256.554 215.770,256.702 216.376,256.884 216.488 C 257.065 216.600,257.214 216.980,257.214 217.332 C 257.214 217.684,257.362 217.972,257.543 217.972 C 257.725 217.972,257.873 218.407,257.873 218.938 C 257.873 219.469,258.096 220.126,258.368 220.398 C 258.640 220.670,258.862 221.117,258.862 221.391 C 258.862 221.666,259.011 221.982,259.192 222.094 C 259.373 222.206,259.522 222.739,259.522 223.278 C 259.522 223.845,259.730 224.338,260.016 224.448 C 260.289 224.552,260.511 224.993,260.511 225.427 C 260.511 225.861,260.660 226.216,260.841 226.216 C 261.022 226.216,261.171 226.666,261.171 227.216 C 261.171 227.800,261.376 228.294,261.665 228.405 C 261.937 228.509,262.160 228.950,262.160 229.384 C 262.160 229.818,262.308 230.173,262.490 230.173 C 262.671 230.173,262.819 230.692,262.819 231.327 C 262.819 231.962,262.968 232.481,263.149 232.481 C 263.331 232.481,263.479 232.783,263.479 233.151 C 263.479 233.520,263.702 233.907,263.974 234.011 C 264.279 234.128,264.468 234.629,264.468 235.320 C 264.468 235.935,264.617 236.439,264.798 236.439 C 264.979 236.439,265.128 236.810,265.128 237.263 C 265.128 237.776,265.315 238.087,265.622 238.087 C 265.968 238.087,266.117 238.435,266.117 239.242 C 266.117 239.876,266.265 240.396,266.447 240.396 C 266.628 240.396,266.777 240.767,266.777 241.220 C 266.777 241.733,266.963 242.045,267.271 242.045 C 267.617 242.045,267.766 242.393,267.766 243.199 C 267.766 243.833,267.914 244.353,268.096 244.353 C 268.277 244.353,268.425 244.724,268.425 245.177 C 268.425 245.631,268.574 246.002,268.755 246.002 C 268.937 246.002,269.085 246.362,269.085 246.802 C 269.085 247.243,269.308 247.826,269.580 248.098 C 269.852 248.370,270.074 248.900,270.074 249.276 C 270.074 249.927,270.250 249.959,273.890 249.959 C 278.127 249.959,278.648 249.745,278.648 248.004 C 278.648 247.323,278.810 246.991,279.143 246.991 C 279.450 246.991,279.637 246.679,279.637 246.167 C 279.637 245.713,279.786 245.342,279.967 245.342 C 280.148 245.342,280.297 244.989,280.297 244.558 C 280.297 244.127,280.519 243.589,280.791 243.364 C 281.063 243.138,281.286 242.600,281.286 242.169 C 281.286 241.738,281.434 241.385,281.616 241.385 C 281.797 241.385,281.950 241.051,281.956 240.643 C 281.962 240.235,282.184 239.613,282.451 239.261 C 282.717 238.909,282.935 238.352,282.935 238.024 C 282.935 237.696,283.083 237.428,283.265 237.428 C 283.446 237.428,283.594 236.983,283.594 236.439 C 283.594 235.894,283.743 235.449,283.924 235.449 C 284.106 235.449,284.254 234.930,284.254 234.295 C 284.254 233.489,284.403 233.141,284.749 233.141 C 285.056 233.141,285.243 232.830,285.243 232.317 C 285.243 231.863,285.392 231.492,285.573 231.492 C 285.754 231.492,285.903 230.973,285.903 230.338 C 285.903 229.532,286.052 229.184,286.397 229.184 C 286.702 229.184,286.892 228.875,286.892 228.379 C 286.892 227.936,287.040 227.482,287.222 227.370 C 287.403 227.258,287.552 226.746,287.552 226.232 C 287.552 225.705,287.767 225.214,288.046 225.107 C 288.318 225.003,288.541 224.625,288.541 224.267 C 288.541 223.910,288.689 223.525,288.871 223.413 C 289.052 223.301,289.200 222.773,289.200 222.239 C 289.200 221.706,289.349 221.270,289.530 221.270 C 289.711 221.270,289.860 220.914,289.860 220.480 C 289.860 220.046,290.082 219.606,290.354 219.502 C 290.644 219.391,290.849 218.896,290.849 218.312 C 290.849 217.762,290.998 217.312,291.179 217.312 C 291.360 217.312,291.509 216.941,291.509 216.488 C 291.509 216.035,291.657 215.664,291.838 215.664 C 292.020 215.664,292.168 215.218,292.168 214.674 C 292.168 214.065,292.010 213.713,291.756 213.757 C 291.529 213.796,289.452 213.875,287.139 213.931 M187.634 231.977 L 187.634 249.959 191.886 249.959 C 197.024 249.959,196.538 250.755,196.538 242.347 L 196.538 235.779 202.796 235.779 L 209.055 235.779 209.144 242.786 L 209.233 249.794 213.603 249.886 L 217.972 249.978 217.972 231.987 L 217.972 213.996 213.603 214.088 L 209.233 214.180 209.144 221.022 L 209.055 227.865 202.803 227.865 L 196.551 227.865 196.462 221.022 L 196.373 214.180 192.003 214.088 L 187.634 213.996 187.634 231.977 M131.520 222.627 C 131.580 222.787,131.988 222.918,132.426 222.918 C 132.865 222.918,133.223 223.067,133.223 223.248 C 133.223 223.430,133.446 223.578,133.718 223.578 C 133.990 223.578,134.213 223.716,134.213 223.885 C 134.213 224.055,134.509 224.287,134.872 224.402 C 135.235 224.517,135.532 224.878,135.532 225.203 C 135.532 225.528,135.903 226.072,136.356 226.413 C 136.941 226.852,137.181 227.345,137.181 228.108 C 137.181 228.700,137.340 229.184,137.535 229.184 C 137.772 229.184,137.838 230.038,137.733 231.739 C 137.548 234.755,137.219 236.439,136.813 236.439 C 136.653 236.439,136.521 236.810,136.521 237.263 C 136.521 237.776,136.334 238.087,136.026 238.087 C 135.754 238.087,135.532 238.246,135.532 238.441 C 135.532 238.897,134.693 239.736,134.236 239.736 C 134.042 239.736,133.883 239.885,133.883 240.066 C 133.883 240.247,133.656 240.396,133.378 240.396 C 133.100 240.396,132.788 240.618,132.683 240.890 C 132.567 241.193,132.067 241.385,131.394 241.385 C 130.789 241.385,130.203 241.533,130.091 241.715 C 129.979 241.896,129.154 242.045,128.258 242.045 C 127.361 242.045,126.628 241.896,126.628 241.715 C 126.628 241.533,126.125 241.385,125.509 241.385 C 124.819 241.385,124.318 241.196,124.201 240.890 C 124.096 240.618,123.778 240.396,123.493 240.396 C 122.856 240.396,120.363 237.906,120.363 237.269 C 120.363 237.015,120.214 236.716,120.033 236.603 C 119.852 236.491,119.703 236.107,119.703 235.749 C 119.703 235.392,119.481 235.013,119.209 234.909 C 118.817 234.759,118.714 234.071,118.714 231.622 C 118.714 229.088,118.804 228.524,119.209 228.524 C 119.516 228.524,119.703 228.213,119.703 227.700 C 119.703 227.246,119.852 226.876,120.033 226.876 C 120.214 226.876,120.363 226.505,120.363 226.051 C 120.363 225.598,120.522 225.227,120.716 225.227 C 120.910 225.227,121.281 225.015,121.540 224.756 C 121.800 224.497,122.012 224.126,122.012 223.931 C 122.012 223.737,122.308 223.578,122.671 223.578 C 123.034 223.578,123.331 223.430,123.331 223.248 C 123.331 223.067,123.553 222.918,123.825 222.918 C 124.097 222.918,124.320 222.778,124.320 222.607 C 124.320 221.945,131.270 221.964,131.520 222.627 M306.678 226.860 C 306.678 227.192,306.900 227.550,307.172 227.654 C 307.483 227.773,307.667 228.278,307.667 229.009 C 307.667 229.649,307.815 230.173,307.997 230.173 C 308.178 230.173,308.326 230.463,308.326 230.816 C 308.326 231.170,308.529 231.578,308.777 231.723 C 309.024 231.868,309.295 232.469,309.379 233.059 L 309.531 234.130 306.126 234.130 C 303.319 234.130,302.721 234.043,302.721 233.636 C 302.721 233.364,302.926 233.141,303.178 233.141 C 303.429 233.141,303.717 232.733,303.817 232.234 C 304.200 230.330,304.475 229.343,304.666 229.184 C 305.046 228.867,306.018 226.818,306.018 226.335 C 306.018 226.067,306.167 225.939,306.348 226.051 C 306.529 226.163,306.678 226.527,306.678 226.860 M241.198 227.370 C 241.317 228.005,241.557 228.524,241.730 228.524 C 241.903 228.524,242.045 228.895,242.045 229.349 C 242.045 229.802,242.193 230.173,242.374 230.173 C 242.556 230.173,242.704 230.526,242.704 230.957 C 242.704 231.388,242.927 231.926,243.199 232.152 C 244.791 233.473,243.861 234.130,240.396 234.130 C 237.000 234.130,236.364 233.831,237.593 232.811 C 237.865 232.585,238.087 232.048,238.087 231.617 C 238.087 231.185,238.236 230.833,238.417 230.833 C 238.599 230.833,238.747 230.525,238.747 230.150 C 238.747 229.774,238.969 229.244,239.242 228.972 C 239.514 228.700,239.736 228.185,239.736 227.827 C 239.736 227.196,240.346 226.254,240.771 226.229 C 240.887 226.222,241.079 226.735,241.198 227.370 " stroke="none" fill="#fcfcfc" fill-rule="evenodd"></path><path id="path1" d="M199.505 77.988 C 199.505 78.442,199.357 78.813,199.176 78.813 C 198.994 78.813,198.841 79.295,198.835 79.885 C 198.830 80.474,198.607 81.244,198.341 81.596 C 198.074 81.948,197.857 82.579,197.857 82.998 C 197.857 83.417,197.708 83.759,197.527 83.759 C 197.345 83.759,197.197 84.344,197.197 85.059 C 197.197 85.774,197.049 86.450,196.867 86.562 C 196.686 86.674,196.538 87.351,196.538 88.066 C 196.538 89.001,196.399 89.365,196.043 89.365 C 195.697 89.365,195.548 89.713,195.548 90.519 C 195.548 91.154,195.400 91.674,195.218 91.674 C 195.037 91.674,194.889 92.177,194.889 92.792 C 194.889 93.483,194.699 93.984,194.394 94.101 C 194.084 94.220,193.899 94.725,193.899 95.455 C 193.899 96.096,193.751 96.620,193.570 96.620 C 193.388 96.620,193.240 97.195,193.240 97.899 C 193.240 98.633,193.029 99.352,192.745 99.588 C 192.473 99.814,192.251 100.417,192.251 100.928 C 192.251 101.439,192.102 101.949,191.921 102.061 C 191.739 102.173,191.591 102.775,191.591 103.400 C 191.591 104.024,191.443 104.534,191.261 104.534 C 191.080 104.534,190.932 105.054,190.932 105.688 C 190.932 106.494,190.782 106.843,190.437 106.843 C 190.093 106.843,189.942 107.188,189.942 107.977 C 189.942 108.601,189.794 109.204,189.613 109.316 C 189.431 109.428,189.283 110.014,189.283 110.619 C 189.283 111.292,189.091 111.792,188.788 111.908 C 188.499 112.019,188.293 112.513,188.293 113.098 C 188.293 113.647,188.145 114.097,187.964 114.097 C 187.782 114.097,187.634 114.468,187.634 114.922 L 187.634 115.746 167.330 115.746 C 145.084 115.746,146.084 115.654,146.084 117.701 C 146.084 118.562,146.208 118.714,146.908 118.714 C 147.362 118.714,147.733 118.873,147.733 119.067 C 147.733 119.649,148.628 120.363,149.358 120.363 C 149.734 120.363,150.041 120.522,150.041 120.716 C 150.041 120.910,150.253 121.281,150.512 121.540 C 150.771 121.800,151.142 122.012,151.337 122.012 C 151.531 122.012,151.690 122.150,151.690 122.319 C 151.690 122.488,152.024 122.732,152.432 122.861 C 152.840 122.990,153.414 123.371,153.707 123.708 C 154.001 124.044,154.373 124.320,154.535 124.320 C 154.697 124.320,155.230 124.691,155.719 125.144 C 156.208 125.598,156.763 125.969,156.952 125.969 C 157.141 125.969,157.296 126.191,157.296 126.463 C 157.296 126.743,157.592 126.958,157.978 126.958 C 158.353 126.958,159.149 127.477,159.748 128.112 C 160.346 128.747,161.078 129.266,161.374 129.266 C 161.670 129.266,161.913 129.415,161.913 129.596 C 161.913 129.777,162.135 129.926,162.407 129.926 C 162.679 129.926,162.902 130.148,162.902 130.420 C 162.902 130.701,163.198 130.915,163.585 130.915 C 164.246 130.915,165.210 131.613,165.210 132.092 C 165.210 132.433,166.293 133.201,166.792 133.213 C 167.028 133.219,167.564 133.594,167.984 134.048 C 168.405 134.501,168.917 134.872,169.123 134.872 C 169.329 134.872,169.497 135.021,169.497 135.202 C 169.497 135.383,169.794 135.532,170.157 135.532 C 170.519 135.532,170.816 135.701,170.816 135.908 C 170.816 136.414,171.835 137.157,172.547 137.170 C 172.865 137.176,173.124 137.403,173.124 137.675 C 173.124 137.947,173.314 138.170,173.546 138.170 C 173.778 138.170,174.182 138.467,174.444 138.829 C 174.705 139.192,175.102 139.489,175.326 139.489 C 175.550 139.489,176.104 139.860,176.557 140.313 C 177.010 140.767,177.685 141.138,178.056 141.138 C 178.796 141.138,179.098 144.169,178.401 144.600 C 178.219 144.712,178.071 145.595,178.071 146.563 C 178.071 147.822,177.930 148.376,177.576 148.512 C 177.228 148.645,177.082 149.188,177.082 150.341 C 177.082 151.243,176.933 152.073,176.752 152.185 C 176.570 152.297,176.422 153.122,176.422 154.018 C 176.422 154.914,176.274 155.647,176.092 155.647 C 175.911 155.647,175.763 156.373,175.763 157.261 C 175.763 158.391,175.614 158.931,175.268 159.064 C 174.911 159.201,174.773 159.761,174.773 161.078 C 174.773 162.081,174.625 162.902,174.444 162.902 C 174.262 162.902,174.114 163.644,174.114 164.551 C 174.114 165.796,173.993 166.200,173.619 166.200 C 173.234 166.200,173.124 166.639,173.124 168.178 C 173.124 169.277,172.978 170.157,172.795 170.157 C 172.613 170.157,172.465 170.883,172.465 171.770 C 172.465 172.900,172.317 173.441,171.970 173.573 C 171.622 173.707,171.476 174.250,171.476 175.403 C 171.476 176.305,171.327 177.134,171.146 177.246 C 170.965 177.359,170.816 178.480,170.816 179.739 L 170.816 182.028 171.905 182.028 C 173.069 182.028,174.766 181.379,174.771 180.933 C 174.774 180.542,175.654 179.720,176.069 179.720 C 176.263 179.720,176.422 179.561,176.422 179.366 C 176.422 178.857,177.283 178.071,177.842 178.071 C 178.414 178.071,181.039 175.666,181.039 175.141 C 181.039 174.939,181.198 174.773,181.392 174.773 C 181.849 174.773,182.688 173.934,182.688 173.478 C 182.688 173.283,183.059 173.124,183.512 173.124 C 183.965 173.124,184.336 172.976,184.336 172.795 C 184.336 172.613,184.495 172.465,184.690 172.465 C 185.074 172.465,185.985 171.653,185.985 171.311 C 185.985 170.901,186.933 170.157,187.456 170.157 C 187.747 170.157,188.070 169.934,188.174 169.662 C 188.279 169.390,188.507 169.167,188.682 169.167 C 189.110 169.167,189.942 168.312,189.942 167.872 C 189.942 167.678,190.097 167.519,190.287 167.519 C 190.735 167.519,192.251 166.003,192.251 165.555 C 192.251 165.365,192.567 165.210,192.954 165.210 C 193.340 165.210,194.147 164.691,194.745 164.056 C 195.344 163.421,195.992 162.902,196.186 162.902 C 196.379 162.902,196.538 162.743,196.538 162.549 C 196.538 162.014,197.410 161.253,198.021 161.253 C 198.633 161.253,199.505 160.492,199.505 159.958 C 199.505 159.763,199.728 159.604,200.000 159.604 C 200.272 159.604,200.495 159.472,200.495 159.310 C 200.495 158.763,201.461 158.639,201.945 159.124 C 202.210 159.388,202.588 159.604,202.785 159.604 C 202.983 159.604,203.649 160.124,204.265 160.758 C 204.882 161.393,205.626 161.913,205.919 161.913 C 206.211 161.913,206.536 162.135,206.641 162.407 C 206.745 162.679,206.974 162.902,207.149 162.902 C 207.577 162.902,208.409 163.758,208.409 164.197 C 208.409 164.392,208.631 164.551,208.904 164.551 C 209.176 164.551,209.398 164.699,209.398 164.880 C 209.398 165.062,209.695 165.210,210.058 165.210 C 210.424 165.210,210.717 165.430,210.717 165.705 C 210.717 165.977,210.907 166.200,211.139 166.200 C 211.371 166.200,211.775 166.496,212.036 166.859 C 212.298 167.222,212.701 167.519,212.933 167.519 C 213.165 167.519,213.355 167.741,213.355 168.013 C 213.355 168.288,213.648 168.508,214.015 168.508 C 214.378 168.508,214.674 168.656,214.674 168.838 C 214.674 169.019,214.897 169.167,215.169 169.167 C 215.441 169.167,215.664 169.326,215.664 169.521 C 215.664 169.960,216.496 170.816,216.924 170.816 C 217.099 170.816,217.327 171.039,217.432 171.311 C 217.536 171.583,217.866 171.805,218.164 171.805 C 218.463 171.805,219.173 172.302,219.741 172.909 C 220.310 173.516,221.257 174.220,221.847 174.474 C 222.436 174.727,222.918 175.057,222.918 175.207 C 222.918 175.598,223.797 176.422,224.214 176.422 C 224.408 176.422,224.567 176.591,224.567 176.798 C 224.567 177.257,225.561 178.046,226.157 178.060 C 226.685 178.073,227.535 178.878,227.535 179.366 C 227.535 179.561,227.690 179.720,227.879 179.720 C 228.068 179.720,228.623 180.091,229.112 180.544 C 229.601 180.998,230.189 181.369,230.417 181.369 C 230.646 181.369,230.833 181.517,230.833 181.698 C 230.833 182.267,232.875 182.066,233.341 181.451 C 233.856 180.773,233.948 179.060,233.471 179.060 C 233.289 179.060,233.141 178.467,233.141 177.741 C 233.141 177.016,232.993 176.422,232.811 176.422 C 232.630 176.422,232.481 175.754,232.481 174.938 C 232.481 173.839,232.353 173.454,231.987 173.454 C 231.613 173.454,231.492 173.051,231.492 171.805 C 231.492 170.899,231.344 170.157,231.162 170.157 C 230.981 170.157,230.833 169.637,230.833 169.002 C 230.833 168.196,230.683 167.848,230.338 167.848 C 229.964 167.848,229.843 167.445,229.843 166.200 C 229.843 165.293,229.695 164.551,229.514 164.551 C 229.332 164.551,229.184 163.809,229.184 162.902 C 229.184 161.995,229.035 161.253,228.854 161.253 C 228.673 161.253,228.524 160.678,228.524 159.974 C 228.524 159.240,228.314 158.521,228.030 158.285 C 227.728 158.035,227.535 157.312,227.535 156.431 C 227.535 155.637,227.387 154.988,227.205 154.988 C 227.024 154.988,226.876 154.405,226.876 153.692 C 226.876 152.980,226.653 152.174,226.381 151.902 C 226.109 151.630,225.886 150.952,225.886 150.395 C 225.886 149.837,225.746 149.382,225.575 149.382 C 225.404 149.382,225.219 148.751,225.163 147.980 C 225.107 147.209,224.905 146.606,224.713 146.640 C 224.521 146.674,224.328 146.080,224.284 145.321 C 224.240 144.562,224.063 143.891,223.891 143.831 C 223.472 143.684,223.488 142.127,223.908 142.127 C 224.089 142.127,224.237 141.904,224.237 141.632 C 224.237 141.360,224.460 141.138,224.732 141.138 C 225.004 141.138,225.227 140.989,225.227 140.808 C 225.227 140.627,225.513 140.478,225.862 140.478 C 226.212 140.478,226.768 140.135,227.099 139.717 C 227.429 139.298,228.182 138.742,228.772 138.482 C 229.361 138.222,229.843 137.822,229.843 137.595 C 229.843 137.367,230.066 137.181,230.338 137.181 C 230.610 137.181,230.833 137.032,230.833 136.851 C 230.833 136.669,231.062 136.521,231.343 136.521 C 231.624 136.521,232.197 136.150,232.617 135.697 C 233.038 135.243,233.486 134.872,233.615 134.872 C 233.743 134.872,234.054 134.687,234.307 134.460 C 235.306 133.564,235.760 133.223,235.954 133.223 C 236.288 133.223,237.098 132.307,237.098 131.928 C 237.098 131.734,237.469 131.575,237.923 131.575 C 238.376 131.575,238.747 131.426,238.747 131.245 C 238.747 131.063,238.969 130.915,239.242 130.915 C 239.514 130.915,239.736 130.692,239.736 130.420 C 239.736 130.146,240.029 129.926,240.396 129.926 C 240.758 129.926,241.055 129.777,241.055 129.596 C 241.055 129.415,241.214 129.266,241.409 129.266 C 241.865 129.266,242.704 128.427,242.704 127.971 C 242.704 127.776,243.021 127.617,243.408 127.617 C 243.795 127.617,244.456 127.246,244.876 126.793 C 245.297 126.340,245.870 125.969,246.151 125.969 C 246.431 125.969,246.661 125.820,246.661 125.639 C 246.661 125.458,246.884 125.309,247.156 125.309 C 247.428 125.309,247.650 125.150,247.650 124.956 C 247.650 124.414,248.526 123.660,249.154 123.660 C 249.463 123.660,250.206 123.141,250.805 122.506 C 251.403 121.871,252.200 121.352,252.575 121.352 C 252.950 121.352,253.256 121.193,253.256 120.999 C 253.256 120.417,254.152 119.703,254.882 119.703 C 255.257 119.703,255.565 119.534,255.565 119.327 C 255.565 119.121,255.808 118.773,256.106 118.556 C 256.520 118.253,256.594 117.877,256.421 116.953 L 256.194 115.746 235.434 115.746 L 214.674 115.746 214.674 114.592 C 214.674 113.957,214.526 113.438,214.345 113.438 C 214.163 113.438,214.015 112.844,214.015 112.119 C 214.015 111.393,213.866 110.800,213.685 110.800 C 213.504 110.800,213.355 110.439,213.355 109.999 C 213.355 109.558,213.133 108.975,212.861 108.703 C 212.589 108.431,212.366 107.753,212.366 107.196 C 212.366 106.639,212.218 106.183,212.036 106.183 C 211.855 106.183,211.707 105.682,211.707 105.069 C 211.707 104.457,211.484 103.771,211.212 103.545 C 210.928 103.309,210.717 102.590,210.717 101.856 C 210.717 101.152,210.569 100.577,210.387 100.577 C 210.206 100.577,210.058 100.053,210.058 99.413 C 210.058 98.682,209.874 98.177,209.563 98.058 C 209.258 97.941,209.068 97.440,209.068 96.750 C 209.068 96.134,208.920 95.631,208.739 95.631 C 208.557 95.631,208.409 95.111,208.409 94.477 C 208.409 93.842,208.261 93.322,208.079 93.322 C 207.898 93.322,207.749 92.906,207.749 92.396 C 207.749 91.887,207.532 91.182,207.265 90.830 C 206.999 90.478,206.776 89.790,206.771 89.302 C 206.765 88.814,206.612 88.323,206.430 88.211 C 206.249 88.099,206.101 87.589,206.101 87.078 C 206.101 86.567,205.878 85.964,205.606 85.738 C 205.334 85.512,205.111 84.826,205.111 84.214 C 205.111 83.601,204.963 83.100,204.782 83.100 C 204.600 83.100,204.452 82.576,204.452 81.935 C 204.452 81.204,204.268 80.700,203.957 80.581 C 203.652 80.464,203.462 79.963,203.462 79.272 C 203.462 78.657,203.314 78.153,203.133 78.153 C 202.951 78.153,202.803 77.931,202.803 77.659 C 202.803 77.285,202.400 77.164,201.154 77.164 C 199.615 77.164,199.505 77.219,199.505 77.988 " stroke="none" fill="#d11117" fill-rule="evenodd"></path><path id="path2" d="" stroke="none" fill="#c0bc100" fill-rule="evenodd"></path><path id="path3" d="" stroke="none" fill="#c0bc100" fill-rule="evenodd"></path><path id="path4" d="" stroke="none" fill="#c0bc100" fill-rule="evenodd"></path></g></svg>