<svg width="79" height="79" viewBox="0 0 79 79" fill="none" xmlns="http://www.w3.org/2000/svg">
<path fill-rule="evenodd" clip-rule="evenodd" d="M37.9286 7.40625C36.937 7.40625 36.1331 8.21014 36.1331 9.2018V14.6518C23.9829 15.5104 14.2173 25.0039 12.9359 37.0326H9.2018C8.21014 37.0326 7.40625 37.8365 7.40625 38.8282C7.40625 39.8198 8.21014 40.6237 9.2018 40.6237H12.809C13.2606 53.4918 23.3842 63.8996 36.1331 64.8005V68.4548C36.1331 69.4465 36.937 70.2504 37.9286 70.2504C38.9203 70.2504 39.7242 69.4465 39.7242 68.4548V64.8008C45.4475 64.3974 50.642 62.0781 54.6701 58.4802L57.8732 61.6832C58.5744 62.3844 59.7113 62.3844 60.4125 61.6832C61.1137 60.982 61.1137 59.8452 60.4125 59.144L57.1721 55.9035C60.6723 51.7448 62.8489 46.4351 63.0528 40.6237H68.4548C69.4465 40.6237 70.2504 39.8198 70.2504 38.8282C70.2504 37.8365 69.4465 37.0326 68.4548 37.0326H62.9259C62.368 31.7951 60.2016 27.0383 56.9301 23.2656L61.046 19.1498C61.7472 18.4486 61.7472 17.3117 61.046 16.6105C60.3448 15.9093 59.2079 15.9093 58.5067 16.6105L54.3908 20.7264C50.4032 17.2688 45.3161 15.0457 39.7242 14.6515V9.2018C39.7242 8.21014 38.9203 7.40625 37.9286 7.40625ZM36.1331 19.6049C26.7118 20.4358 19.1477 27.7344 17.9088 37.0326H27.4978C28.5477 32.9533 31.9269 29.809 36.1331 29.1021V19.6049ZM39.7242 29.101C43.9332 29.8059 47.3151 32.9513 48.3656 37.0326H57.953C56.7139 27.7329 49.1475 20.4335 39.7242 19.6045V29.101ZM58.1115 40.6237H48.6681C48.2612 45.5556 44.5323 49.5455 39.7242 50.3507V59.8478C49.7463 58.9662 57.668 50.7656 58.1115 40.6237ZM36.1331 59.8474V50.3497C31.3279 49.5421 27.602 45.5535 27.1953 40.6237H17.7503C18.1937 50.764 26.113 58.9637 36.1331 59.8474ZM18.9307 56.1865C19.7158 57.0919 20.5646 57.9406 21.47 58.7257L19.1477 61.048C18.4465 61.7492 17.3097 61.7492 16.6085 61.048C15.9073 60.3468 15.9073 59.2099 16.6085 58.5087L18.9307 56.1865ZM18.5143 17.2457L21.7532 20.4847C20.836 21.2566 19.9748 22.0929 19.1765 22.9866L15.975 19.785C15.2738 19.0838 15.2738 17.9469 15.975 17.2457C16.6762 16.5445 17.8131 16.5445 18.5143 17.2457ZM37.9317 45.5617C41.1547 45.5617 43.7675 42.9489 43.7675 39.7259C43.7675 36.5029 41.1547 33.8901 37.9317 33.8901C34.7087 33.8901 32.0959 36.5029 32.0959 39.7259C32.0959 42.9489 34.7087 45.5617 37.9317 45.5617Z" fill="#6D0FA7"/>
</svg>
