<?xml version="1.0" standalone="no"?>
<!DOCTYPE svg PUBLIC "-//W3C//DTD SVG 20010904//EN"
 "http://www.w3.org/TR/2001/REC-SVG-20010904/DTD/svg10.dtd">
<svg version="1.0" xmlns="http://www.w3.org/2000/svg"
 width="400.000000pt" height="400.000000pt" viewBox="0 0 400.000000 400.000000"
 preserveAspectRatio="xMidYMid meet">

<g transform="translate(0.000000,400.000000) scale(0.100000,-0.100000)"
fill="#7E64E0" stroke="none">
<path d="M1538 3981 c-80 -26 -139 -91 -157 -173 -23 -103 33 -211 131 -252
49 -21 140 -20 180 0 l32 16 -34 28 c-27 22 -41 27 -71 23 -90 -12 -180 77
-165 165 12 74 73 127 146 127 86 0 145 -63 144 -153 0 -48 3 -59 25 -78 14
-12 29 -20 33 -18 4 2 12 28 18 57 27 130 -67 252 -202 262 -29 3 -65 0 -80
-4z"/>
<path d="M2050 3637 c-55 -12 -150 -60 -150 -76 0 -4 22 -27 50 -50 l50 -42
32 18 c48 25 151 23 204 -5 54 -28 111 -95 125 -146 40 -148 -61 -293 -212
-304 -40 -3 -72 1 -100 12 l-42 17 -49 -48 c-49 -48 -49 -48 -28 -65 46 -37
131 -60 210 -56 314 15 469 395 255 627 -94 102 -220 145 -345 118z"/>
<path d="M1789 3423 c-21 -42 -24 -63 -24 -158 0 -101 2 -114 28 -162 15 -29
31 -53 35 -53 4 0 27 20 51 44 l43 43 -16 47 c-19 57 -20 108 -1 161 l14 40
-41 42 c-23 24 -47 43 -54 43 -6 0 -22 -21 -35 -47z"/>
<path d="M1190 3064 c-167 -43 -323 -171 -397 -324 -52 -107 -67 -172 -67
-285 1 -263 171 -495 430 -586 83 -29 222 -36 302 -15 69 17 162 55 162 65 -1
3 -31 47 -68 97 -63 86 -69 91 -92 82 -127 -48 -289 -14 -394 82 -203 187
-149 514 104 634 58 28 75 31 160 31 88 0 101 -3 160 -32 l65 -32 78 77 c42
42 77 80 77 84 0 19 -130 90 -205 113 -94 29 -225 33 -315 9z"/>
<path d="M1717 2782 l-78 -79 30 -60 c69 -135 57 -279 -36 -424 -16 -25 -15
-27 53 -118 l69 -92 38 43 c52 60 114 182 133 264 21 88 14 242 -15 334 -19
61 -76 168 -104 197 -10 10 -29 -3 -90 -65z"/>
<path d="M2223 2009 c-107 -10 -217 -41 -309 -86 -41 -19 -74 -37 -74 -39 0
-2 156 -230 165 -242 2 -2 22 6 45 18 64 33 185 60 268 60 181 0 360 -85 476
-227 112 -134 166 -277 173 -453 6 -146 -11 -231 -73 -358 -38 -79 -60 -110
-132 -182 -70 -70 -104 -95 -172 -129 -290 -142 -616 -52 -803 224 -185 272
-163 656 51 896 24 27 42 52 40 57 -9 22 -164 242 -170 242 -4 0 -36 -28 -71
-62 -261 -258 -347 -609 -246 -1003 112 -435 527 -738 974 -711 440 27 776
320 887 774 26 109 29 318 4 429 -84 382 -340 666 -685 762 -65 18 -97 23
-231 35 -19 2 -72 -1 -117 -5z"/>
</g>
</svg>
