<svg id="Layer_1" xmlns="http://www.w3.org/2000/svg" viewBox="0 0 1192 226"  >
	<style>.st0{fill:#8ec545}</style>
	<path d="M486.5 26.5c-14.3-10.3-33.1-10.9-50-8.9-6 .9-12 2.5-17.4 5.3-9.7 4.7-16.9 13.5-20.9 23.3-5.7 13.8-7 29-7.7 43.7-.3 18.7-.8 37.6 1.8 56.2 2.1 14.7 6.6 30.3 18.1 40.4 11.9 10.4 28.5 12.7 43.7 12 14.2-.4 29.2-4.6 38.9-15.7 10.9-12.6 13.9-29.8 15.5-45.8 1.6-22.5 1.8-45.2-1-67.7-2.2-15.7-7.4-32.9-21-42.8zm-12.8 100.6c-.5 10.6-.9 21.4-4.3 31.5-2 5.8-6.2 11.4-12.4 13-6.1 1.5-13 1.4-18.5-1.9-6.6-4.2-8.9-12.3-10.3-19.5-2.5-14.9-2.4-30.1-2.4-45.2-.1-10 .3-20 1.1-30 1-8.1 1.9-16.7 6.3-23.8 2.3-3.7 6-6.5 10.3-7.5 7.4-1.5 16.3-.8 21.5 5.3 5.6 7 6.8 16.3 7.8 24.9 1.5 17.6 1.4 35.4.9 53.2zm678.6-107.7c-7.3.1-14.6.1-21.9 0-.1 2-.1 4.1-.1 6.1h7.5c-.1 9.5 0 19 0 28.5h7.1c-.1-9.5 0-19 0-28.5h7.4c.1-2 .1-4 0-6.1zm38.7.1h-10.5c-1.8 7.9-3.3 15.8-4.9 23.7-1.8-7.8-3.2-15.8-4.9-23.6h-10.6v34.5h6.5V27.3c2.1 8.9 4 17.8 6 26.7 1.9 0 3.8.1 5.7.1 1.9-8.6 3.7-17.2 5.8-25.8.1 8.6 0 17.2 0 25.7h6.8c.1-11.5.2-23 .1-34.5zM358.7 166.1h-62.5V20h-35.5v175.4c32.7-.1 65.4.1 98.1-.1-.1-9.7 0-19.5-.1-29.2zM538.1 49.3h38.2c.1 48.7 0 97.5 0 146.1h35.5V49.3h38.3V20H538c.1 9.8.1 19.5.1 29.3zM704 20c-15.5 58.4-30.9 116.9-46.4 175.3h37c2.8-12.3 5.4-24.6 8.1-37 15.4-.1 30.9 0 46.4-.1 2.6 12.3 5.4 24.7 8 37h37.1c-15.4-58.4-31-116.9-46.3-175.3-14.7 0-29.3.1-43.9.1zm5 109c5.7-26.2 11.2-52.4 16.9-78.5 5.8 26.1 11.3 52.3 16.9 78.5H709zM922.4 20c-8.4 41.4-16.9 82.8-25.4 124.3-8.3-41.4-16.7-82.8-25.1-124.2-17.5-.1-35 0-52.6 0v175.4h32.5V55.6c1.2 3.5 1.7 7.1 2.6 10.6 9.6 43.1 19.2 86.2 28.7 129.3 9.3 0 18.5.1 27.8-.1 10.2-46.5 20.8-93.1 31-139.6.3 1.7.4 3.5.4 5.2v134.4h32.5c.1-58.4 0-116.9 0-175.3-17.4-.2-34.9-.1-52.4-.1zm132.7 146.1c0-15.6-.1-31.2.1-46.8 19.6.1 39.1 0 58.7.1.1-9.7 0-19.3 0-29h-58.8v-41h62.3V20.1h-98.1v175.4h100.6v-29.2c-21.6-.2-43.2-.2-64.8-.2z"/>
	<path class="st0" d="M218.7 105.9c-2.3-5.8-7.9-10.1-14.1-10.9-2.4-12.1-6.9-23.7-13.6-34-2.1-2.5.8-5 1.7-7.3 4.1-8.3.1-19.1-8-23.4-6.7-3.6-15.4-2.5-21.1 2.6-5.9-3.4-11.7-7-18.1-9.3-5.4-2.2-11.2-3.5-16.8-5.1-.7-5.8-4-11.2-9.1-14-6.5-4-15.4-3-21 2.1-3.6 2.9-5.6 7.4-6.2 12-6.6 2.1-13.4 3.4-19.5 6.5-4.8 2-9.2 4.7-13.7 7.3-1.8 1.3-3.4-.8-4.9-1.6-4-2.8-9.3-2.9-13.9-2.1-6.8 1.8-12.3 7.9-13.2 14.9-1.1 5.6 1.2 11.2 4.7 15.5C25 70 19.8 82 17.4 94.7c-4.9 1-9.6 3.3-12.7 7.4-3.9 4.7-4.4 11.4-2.8 17 2.2 6.8 8.7 11.6 15.7 12.3 2.6 11.5 7 22.7 13.5 32.7 1.9 2.3-.8 4.4-1.9 6.3-5 8.1-1.9 19.6 6.2 24.4 6.1 4 14.6 3.6 20.4-.8 1.3-1 3-2.4 4.6-1.1 9.7 6.3 20.8 10 31.9 13.1.1 11.2 12 20.3 22.8 17.2 7.7-2 13.4-9.3 13.8-17.2 12-2.6 23.6-7.3 34.1-13.7 5 4.5 12.2 6.9 18.7 4.5 9.2-2.6 15-13.3 12-22.4-.7-3-2.9-5.3-4.2-8 6.9-10.6 12.4-22.2 14.6-34.6 3.2-1 6.6-1.9 9.2-4.1 6.2-5.1 8.8-14.5 5.4-21.8zm-32.5 16.2c2.8 5 8 8.3 13.6 9-2.3 11.7-6.9 23.1-14.2 32.6-9.3-6.1-23.3-1.3-26.6 9.4-2.3 5.2-.5 10.7.8 15.8-9.2 6.5-20.2 10.2-31.1 12.7-2.2-7-7.8-13.3-15.5-14.1-9-1.9-18.3 4.8-20.5 13.6-11.3-1.3-21.8-6.6-31.5-12.3 1.2-4.3 3.2-8.9 1.7-13.4-2-10-13.5-16.7-23.1-13.3-1.7.3-4.2 2-5.2-.2-6-9.3-10.4-19.7-12.4-30.6 6.5-1.2 12.4-5.8 14.3-12.2C40.4 109 33 96.6 22.2 95.3c0-4.9 1.7-9.6 3.3-14.2 2.6-6.6 5.5-13.2 9.6-19 4.9 2.2 10.4 3.6 15.6 1.7 7.2-2.2 12.4-9.2 12.7-16.7.2-3.8-1.3-7.3-2.8-10.7C70 30 80.8 25.2 92.2 23.2c1.5 7.6 7.8 14.1 15.6 15.1 9.6 1.7 19-5.7 20.7-15.1 11.1 1.7 21.7 6.2 31 12.2.5 0 1.5-.1 2-.1-3.5 4.4-4.3 10.3-3.2 15.7 2.1 8.1 10.2 14.1 18.5 13.5 3.2.1 6-1.7 9-2.4 1.7.2 2.3 2.3 3.2 3.5 5 9.1 9.5 18.8 10.7 29.2-7.1 1.1-13.6 6.1-15.4 13.2-.7 4.7-.7 9.9 1.9 14.1z"/>
	<path class="st0" d="M108.8 72.4c7.6 1.2 15.1-5.8 14.4-13.4-.2-7.8-8.6-13.9-16.1-11.7-4.1 1.1-7.7 4.2-8.9 8.4-2.7 7.2 2.9 15.9 10.6 16.7zm-39.7-9.9c-4.3 1.3-8 4.8-9.1 9.3-2.2 7.4 4 15.9 11.7 15.9 8.8 1 16.2-9.2 12.6-17.2-2-6.2-9-9.6-15.2-8zM144 86.9c7.8 3.1 17.5-3.5 17.2-12 .2-8.1-8.2-14.7-16-12.5-3.8.9-7 3.8-8.5 7.4-3.3 6.4.6 14.8 7.3 17.1zm-74.7 18.8c-3.7-6-12.6-7.9-18.2-3.5-6.3 4.1-7 14.1-1.7 19.3 2.2 2.5 5.5 3.2 8.5 4.3 2.9-.8 6.2-1.1 8.5-3.2 5.1-3.8 6.6-11.6 2.9-16.9zm88.8-5.2c-4.9 1.6-8.5 6.4-8.7 11.5-.5 7.2 6.1 13.9 13.3 13.4 8-.1 14.5-8.9 11.8-16.5-1.6-6.7-9.8-11-16.4-8.4zm-13.3 37.7c-5.8 1.7-10 7.7-9.2 13.8.6 6.5 6.8 11.9 13.3 11.4 8-.1 14.4-8.9 11.7-16.5-1.8-6.5-9.4-10.7-15.8-8.7zm-74.9-.2c-4.3.9-8 4-9.6 8.2-2.9 7 2.1 15.7 9.5 17 8.6 2.2 17.5-6.8 15-15.4-1.2-6.7-8.4-11.2-14.9-9.8zm39.1 15.3c-4.7.2-8.8 3.6-10.5 7.8-2.5 5.6 0 12.9 5.4 15.8 6.5 4.1 15.9.7 18.4-6.5 3.8-8.3-4.2-18.8-13.3-17.1z"/>
</svg>