<?xml version="1.0" standalone="no"?>
<!DOCTYPE svg PUBLIC "-//W3C//DTD SVG 20010904//EN"
 "http://www.w3.org/TR/2001/REC-SVG-20010904/DTD/svg10.dtd">
<svg version="1.0" xmlns="http://www.w3.org/2000/svg"
 width="368.000000pt" height="137.000000pt" viewBox="0 0 368.000000 137.000000"
 preserveAspectRatio="xMidYMid meet">
<metadata>
Created by potrace 1.15, written by Peter Selinger 2001-2017
</metadata>
<g transform="translate(0.000000,137.000000) scale(0.100000,-0.100000)"
fill="#000000" stroke="none">
<path d="M810 693 c0 -651 0 -655 20 -642 11 8 85 66 164 129 l145 115 1 437
0 436 -165 90 -165 90 0 -655z"/>
<path d="M380 721 c0 -281 3 -511 8 -511 4 0 64 25 135 56 l127 56 0 417 0
416 -118 34 c-64 19 -125 36 -134 39 -17 4 -18 -25 -18 -507z"/>
<path d="M20 725 l0 -372 98 26 97 26 0 330 0 329 -97 17 -98 16 0 -372z"/>
<path d="M1470 695 l0 -215 35 0 35 0 0 157 0 157 71 -114 c39 -63 73 -116 74
-118 1 -1 36 50 76 115 l74 118 3 -157 3 -158 34 0 35 0 0 215 0 215 -39 0
c-38 0 -38 0 -107 -115 -38 -63 -71 -115 -74 -115 -3 0 -37 52 -75 115 -69
113 -70 114 -107 115 l-38 0 0 -215z"/>
<path d="M2510 695 l0 -215 35 0 35 0 0 59 c0 33 4 62 9 66 6 3 34 -24 62 -60
50 -62 54 -65 96 -65 l44 0 -62 75 c-34 42 -67 79 -72 82 -5 3 22 36 59 74
l68 69 -44 0 c-41 0 -49 -5 -102 -57 l-58 -57 0 122 0 122 -35 0 -35 0 0 -215z"/>
<path d="M3158 799 c-56 -72 -57 -74 -33 -77 25 -3 25 -5 25 -98 0 -93 1 -96
30 -125 25 -26 36 -30 72 -27 41 3 43 5 46 36 3 30 1 33 -17 27 -11 -3 -29 -1
-41 5 -18 9 -20 20 -20 95 l0 85 40 0 c38 0 40 2 40 30 0 28 -2 30 -39 30
l-40 0 -3 47 -3 47 -57 -75z"/>
<path d="M2020 773 c-28 -14 -36 -25 -38 -50 -2 -18 -2 -33 0 -33 2 0 21 9 43
20 47 24 73 25 103 4 33 -23 27 -42 -15 -49 -62 -10 -123 -35 -133 -55 -13
-24 -13 -76 0 -99 22 -42 120 -52 150 -16 16 19 30 19 30 0 0 -10 10 -15 30
-15 l30 0 0 109 c0 122 -8 152 -43 176 -39 25 -116 29 -157 8z"/>
<path d="M2410 779 c-14 -5 -31 -17 -37 -26 -12 -15 -13 -15 -13 5 0 18 -6 22
-35 22 l-35 0 0 -150 0 -150 35 0 35 0 0 89 c0 100 16 134 70 146 26 6 30 11
30 41 0 36 -7 40 -50 23z"/>
<path d="M2895 783 c-65 -18 -105 -76 -105 -153 0 -60 18 -100 60 -130 39 -28
122 -36 175 -17 35 12 40 18 43 50 l3 35 -38 -19 c-76 -39 -173 -10 -173 52 0
5 50 9 110 9 l110 0 0 38 c0 43 -28 94 -64 117 -27 18 -89 27 -121 18z"/>
<path d="M3438 780 c-71 -21 -108 -73 -108 -150 0 -102 72 -167 173 -157 89 8
142 67 142 157 0 71 -21 105 -85 138 -46 23 -76 26 -122 12z m115 -91 c15 -16
27 -41 27 -55 0 -88 -101 -134 -158 -71 -44 50 -29 126 30 152 41 18 66 11
101 -26z"/>
</g>
</svg>
