<?xml version="1.0" ?><svg enable-background="new 0 0 40 10" id="mixpanel" version="1.1" viewBox="0 0 232 68" xml:space="preserve" xmlns="http://www.w3.org/2000/svg" xmlns:xlink="http://www.w3.org/1999/xlink"><g><path d="M34,0C15.2539,0,0,15.252,0,34s15.2539,34,34,34c18.7459,0,34-15.252,34-34S52.7459,0,34,0z" fill="#A9C7D8"/><path d="M132,8c-15.4377,0-28,12.5605-28,28c0,15.4397,12.5623,28,28,28c15.4375,0,28-12.5603,28-28   C160,20.5605,147.4375,8,132,8z" fill="#A9C7D8"/><path d="M212,16c-11.0273,0-20,8.9729-20,20c0,11.0273,8.9727,20,20,20c11.0271,0,20-8.9727,20-20   C232,24.9729,223.0271,16,212,16z" fill="#A9C7D8"/></g></svg>