<svg width="100" height="59" viewBox="0 0 100 59" fill="none" xmlns="http://www.w3.org/2000/svg">
<g filter="url(#filter0_d)">
<path fill-rule="evenodd" clip-rule="evenodd" d="M40.5 8C31.9396 8 25 14.9396 25 23.5C25 32.0604 31.9396 39 40.5 39H52.8812L57.5 47L62.1188 39H74.5C83.0604 39 90 32.0604 90 23.5C90 14.9396 83.0604 8 74.5 8H40.5Z" fill="white"/>
</g>
<path d="M43.8908 28H42.3188L37.9868 21.076H37.9388C37.9548 21.396 37.9748 21.764 37.9988 22.18C38.0228 22.588 38.0348 23.008 38.0348 23.44V28H36.8588V19.432H38.4188L42.7388 26.32H42.7747C42.7668 26.152 42.7548 25.94 42.7388 25.684C42.7308 25.428 42.7228 25.156 42.7148 24.868C42.7068 24.572 42.6988 24.296 42.6908 24.04V19.432H43.8908V28ZM51.7312 24.76C51.7312 25.832 51.4552 26.66 50.9032 27.244C50.3512 27.828 49.6072 28.12 48.6712 28.12C48.0872 28.12 47.5672 27.988 47.1112 27.724C46.6632 27.46 46.3072 27.08 46.0432 26.584C45.7872 26.08 45.6592 25.472 45.6592 24.76C45.6592 23.688 45.9312 22.864 46.4752 22.288C47.0192 21.704 47.7632 21.412 48.7072 21.412C49.2992 21.412 49.8192 21.544 50.2672 21.808C50.7232 22.064 51.0792 22.44 51.3352 22.936C51.5992 23.432 51.7312 24.04 51.7312 24.76ZM46.9672 24.76C46.9672 25.488 47.1032 26.056 47.3752 26.464C47.6552 26.872 48.0952 27.076 48.6952 27.076C49.2952 27.076 49.7312 26.872 50.0032 26.464C50.2832 26.056 50.4232 25.488 50.4232 24.76C50.4232 24.024 50.2832 23.46 50.0032 23.068C49.7232 22.668 49.2832 22.468 48.6832 22.468C48.0832 22.468 47.6472 22.668 47.3752 23.068C47.1032 23.46 46.9672 24.024 46.9672 24.76ZM58.6808 28.12C57.9048 28.12 57.2768 27.84 56.7968 27.28C56.3248 26.72 56.0888 25.888 56.0888 24.784C56.0888 23.672 56.3288 22.832 56.8088 22.264C57.2888 21.696 57.9208 21.412 58.7048 21.412C59.1928 21.412 59.5928 21.504 59.9048 21.688C60.2168 21.872 60.4688 22.096 60.6608 22.36H60.7328C60.7168 22.256 60.6968 22.096 60.6728 21.88C60.6488 21.664 60.6368 21.472 60.6368 21.304V18.88H61.9088V28H60.9128L60.6968 27.136H60.6368C60.4528 27.416 60.2048 27.652 59.8928 27.844C59.5808 28.028 59.1768 28.12 58.6808 28.12ZM58.9808 27.076C59.6048 27.076 60.0448 26.904 60.3008 26.56C60.5568 26.208 60.6848 25.684 60.6848 24.988V24.796C60.6848 24.044 60.5608 23.468 60.3128 23.068C60.0728 22.66 59.6248 22.456 58.9688 22.456C58.4488 22.456 58.0568 22.668 57.7928 23.092C57.5288 23.508 57.3968 24.08 57.3968 24.808C57.3968 25.536 57.5288 26.096 57.7928 26.488C58.0568 26.88 58.4528 27.076 58.9808 27.076ZM66.4103 21.412C67.2183 21.412 67.8223 21.592 68.2223 21.952C68.6303 22.304 68.8343 22.86 68.8343 23.62V28H67.9343L67.6823 27.1H67.6343C67.3543 27.452 67.0583 27.712 66.7463 27.88C66.4423 28.04 66.0183 28.12 65.4743 28.12C64.8903 28.12 64.4063 27.964 64.0223 27.652C63.6383 27.332 63.4463 26.836 63.4463 26.164C63.4463 25.508 63.6943 25.008 64.1903 24.664C64.6863 24.32 65.4503 24.132 66.4823 24.1L67.5863 24.064V23.704C67.5863 23.232 67.4783 22.9 67.2623 22.708C67.0463 22.508 66.7423 22.408 66.3503 22.408C66.0223 22.408 65.7063 22.456 65.4023 22.552C65.0983 22.648 64.8063 22.764 64.5263 22.9L64.1183 21.976C64.4223 21.816 64.7703 21.684 65.1623 21.58C65.5623 21.468 65.9783 21.412 66.4103 21.412ZM67.5743 24.892L66.7103 24.916C65.9743 24.948 65.4623 25.072 65.1743 25.288C64.8943 25.496 64.7543 25.792 64.7543 26.176C64.7543 26.512 64.8543 26.756 65.0543 26.908C65.2543 27.06 65.5143 27.136 65.8343 27.136C66.3303 27.136 66.7423 26.996 67.0703 26.716C67.4063 26.436 67.5743 26.016 67.5743 25.456V24.892ZM73.1209 27.088C73.2889 27.088 73.4609 27.076 73.6369 27.052C73.8129 27.02 73.9649 26.98 74.0929 26.932V27.892C73.9489 27.956 73.7609 28.008 73.5289 28.048C73.3049 28.096 73.0769 28.12 72.8449 28.12C72.4929 28.12 72.1689 28.06 71.8729 27.94C71.5769 27.82 71.3409 27.612 71.1649 27.316C70.9969 27.02 70.9129 26.608 70.9129 26.08V22.504H70.0129V21.928L70.9609 21.448L71.4049 20.08H72.1849V21.532H74.0329V22.504H72.1849V26.056C72.1849 26.408 72.2689 26.668 72.4369 26.836C72.6129 27.004 72.8409 27.088 73.1209 27.088ZM77.8946 21.412C78.7026 21.412 79.3066 21.592 79.7066 21.952C80.1146 22.304 80.3186 22.86 80.3186 23.62V28H79.4186L79.1666 27.1H79.1186C78.8386 27.452 78.5426 27.712 78.2306 27.88C77.9266 28.04 77.5026 28.12 76.9586 28.12C76.3746 28.12 75.8906 27.964 75.5066 27.652C75.1226 27.332 74.9306 26.836 74.9306 26.164C74.9306 25.508 75.1786 25.008 75.6746 24.664C76.1706 24.32 76.9346 24.132 77.9666 24.1L79.0706 24.064V23.704C79.0706 23.232 78.9626 22.9 78.7466 22.708C78.5306 22.508 78.2266 22.408 77.8346 22.408C77.5066 22.408 77.1906 22.456 76.8866 22.552C76.5826 22.648 76.2906 22.764 76.0106 22.9L75.6026 21.976C75.9066 21.816 76.2546 21.684 76.6466 21.58C77.0466 21.468 77.4626 21.412 77.8946 21.412ZM79.0586 24.892L78.1946 24.916C77.4586 24.948 76.9466 25.072 76.6586 25.288C76.3786 25.496 76.2386 25.792 76.2386 26.176C76.2386 26.512 76.3386 26.756 76.5386 26.908C76.7386 27.06 76.9986 27.136 77.3186 27.136C77.8146 27.136 78.2266 26.996 78.5546 26.716C78.8906 26.436 79.0586 26.016 79.0586 25.456V24.892Z" fill="#828282"/>
<defs>
<filter id="filter0_d" x="15" y="0" width="85" height="59" filterUnits="userSpaceOnUse" color-interpolation-filters="sRGB">
<feFlood flood-opacity="0" result="BackgroundImageFix"/>
<feColorMatrix in="SourceAlpha" type="matrix" values="0 0 0 0 0 0 0 0 0 0 0 0 0 0 0 0 0 0 127 0"/>
<feOffset dy="2"/>
<feGaussianBlur stdDeviation="5"/>
<feColorMatrix type="matrix" values="0 0 0 0 0 0 0 0 0 0 0 0 0 0 0 0 0 0 0.2 0"/>
<feBlend mode="normal" in2="BackgroundImageFix" result="effect1_dropShadow"/>
<feBlend mode="normal" in="SourceGraphic" in2="effect1_dropShadow" result="shape"/>
</filter>
</defs>
</svg>
