<?xml version="1.0" standalone="no"?>
<!DOCTYPE svg PUBLIC "-//W3C//DTD SVG 20010904//EN"
 "http://www.w3.org/TR/2001/REC-SVG-20010904/DTD/svg10.dtd">
<svg version="1.0" xmlns="http://www.w3.org/2000/svg"
 width="1499.000000pt" height="381.000000pt" viewBox="0 0 1499.000000 381.000000"
 preserveAspectRatio="xMidYMid meet">
<metadata>
Created by potrace 1.15, written by Peter Selinger 2001-2017
</metadata>
<g transform="translate(0.000000,381.000000) scale(0.100000,-0.100000)"
fill="#000000" stroke="none">
<path d="M2225 3796 c-537 -78 -959 -420 -1144 -930 l-36 -98 -94 -34 c-487
-173 -838 -584 -925 -1084 -19 -112 -29 -230 -19 -230 4 0 229 221 498 490
l491 491 12 -128 12 -128 -496 -489 -496 -490 5 -45 c8 -66 53 -202 100 -304
l41 -88 321 321 321 321 2 63 c6 148 67 282 179 394 41 40 79 72 84 70 6 -2
24 -35 40 -72 139 -325 421 -594 779 -743 25 -10 24 -11 -60 -95 -119 -119
-225 -168 -398 -184 l-70 -7 -317 -317 -316 -316 88 -41 c99 -46 224 -88 297
-98 l48 -8 497 497 497 497 69 -11 c39 -5 97 -10 130 -10 l60 -1 -500 -494
-500 -495 77 0 c42 0 125 9 183 20 287 56 546 198 751 412 146 153 256 335
318 523 l26 81 88 28 c102 34 237 101 342 171 102 68 274 237 350 342 120 167
209 385 246 598 25 139 15 417 -19 551 -71 278 -206 509 -412 702 -191 178
-427 299 -688 353 -129 26 -340 33 -462 15z m366 -825 c196 -62 357 -235 405
-437 23 -98 15 -236 -19 -333 -143 -408 -660 -533 -976 -236 -127 121 -186
258 -185 435 1 128 31 228 100 331 145 219 423 318 675 240z"/>
<path d="M5015 2485 c-365 -80 -565 -377 -565 -838 0 -171 18 -285 63 -406 85
-225 245 -372 472 -432 107 -29 317 -31 420 -5 288 73 474 290 531 620 25 142
15 410 -20 535 -81 288 -264 469 -536 527 -81 17 -285 17 -365 -1z m340 -274
c154 -54 250 -190 286 -405 15 -88 6 -331 -15 -406 -68 -243 -227 -362 -464
-347 -70 4 -96 11 -157 41 -117 58 -188 154 -232 316 -26 93 -25 377 0 470 68
243 230 369 454 355 40 -3 98 -13 128 -24z"/>
<path d="M8240 2335 l0 -145 145 0 146 0 -3 143 -3 142 -142 3 -143 3 0 -146z"/>
<path d="M10590 2335 l0 -145 140 0 140 0 0 145 0 145 -140 0 -140 0 0 -145z"/>
<path d="M13370 1645 l0 -835 145 0 145 0 -2 833 -3 832 -142 3 -143 3 0 -836z"/>
<path d="M7510 2180 l0 -169 -107 -3 -108 -3 0 -120 0 -120 107 -3 107 -3 3
-367 c3 -362 3 -368 27 -420 14 -30 42 -69 67 -91 65 -57 128 -71 312 -71
l152 0 0 130 0 130 -100 0 c-110 0 -143 10 -159 49 -8 17 -10 129 -9 331 l3
305 133 3 132 3 0 124 0 124 -132 3 -133 3 -3 168 -2 167 -145 0 -145 0 0
-170z"/>
<path d="M6653 2029 c-71 -12 -149 -44 -204 -85 l-47 -34 -36 50 -36 50 -110
0 -110 0 0 -835 0 -835 145 0 145 0 0 280 c0 154 2 280 5 280 3 0 28 -16 56
-35 116 -79 296 -101 437 -52 235 82 372 303 372 602 0 330 -166 562 -438 611
-86 15 -105 15 -179 3z m128 -275 c41 -12 66 -28 106 -69 73 -75 98 -156 90
-298 -6 -122 -25 -181 -78 -241 -114 -129 -337 -127 -435 5 -79 107 -83 368
-8 496 62 106 187 147 325 107z"/>
<path d="M9240 2030 c-66 -11 -152 -46 -200 -81 -23 -17 -46 -27 -50 -22 -4 4
-13 25 -20 46 l-12 37 -129 0 -129 0 0 -600 0 -600 145 0 145 0 0 378 c0 430
4 458 69 523 75 76 189 77 272 2 29 -26 44 -51 59 -100 18 -60 20 -93 20 -434
l0 -369 145 0 145 0 0 353 c0 365 6 441 41 509 56 109 223 129 311 37 67 -71
71 -96 76 -521 l4 -378 144 0 144 0 0 353 c0 194 -5 390 -11 437 -33 264 -165
406 -398 429 -150 15 -260 -16 -355 -100 l-46 -41 -20 25 c-65 82 -229 137
-350 117z"/>
<path d="M12486 2014 c-143 -35 -284 -149 -349 -284 -50 -105 -67 -184 -67
-321 0 -205 50 -339 175 -465 112 -113 231 -159 410 -158 169 1 312 53 411
150 54 52 111 150 116 200 l3 29 -151 3 -152 3 -20 -35 c-35 -59 -90 -80 -207
-81 -90 0 -105 3 -151 27 -80 42 -134 118 -134 188 l0 30 420 0 c391 0 421 1
428 18 13 33 6 215 -12 281 -57 211 -206 364 -402 415 -76 20 -237 20 -318 0z
m297 -276 c72 -31 137 -120 137 -187 0 -8 -77 -11 -276 -11 l-277 0 6 37 c13
80 103 163 197 183 61 12 155 3 213 -22z"/>
<path d="M8240 1410 l0 -600 145 0 145 0 0 600 0 600 -145 0 -145 0 0 -600z"/>
<path d="M10585 1998 c-3 -7 -4 -276 -3 -598 l3 -585 145 0 145 0 0 595 0 595
-143 3 c-108 2 -144 0 -147 -10z"/>
<path d="M11070 1880 c0 -71 1 -131 3 -132 1 -1 128 -5 281 -8 l279 -5 -291
-335 -292 -335 0 -127 0 -128 485 0 485 0 0 130 0 130 -300 0 c-200 0 -300 3
-300 10 0 6 128 159 285 341 l285 330 0 129 0 130 -460 0 -460 0 0 -130z"/>
<path d="M13790 2001 c0 -5 95 -290 211 -634 119 -356 213 -648 216 -679 5
-46 2 -56 -17 -73 -20 -18 -39 -20 -216 -23 l-194 -3 0 -125 0 -125 278 3
c239 3 281 5 308 20 43 24 82 72 111 138 33 73 503 1469 503 1492 0 17 -12 18
-148 18 l-149 0 -143 -457 c-78 -252 -146 -465 -150 -473 -11 -19 5 -66 -163
470 l-143 455 -152 3 c-87 1 -152 -1 -152 -7z"/>
<path d="M577 852 c-158 -158 -287 -293 -287 -301 0 -17 254 -271 272 -270 7
0 145 129 306 288 l294 287 -60 37 c-66 41 -176 153 -207 210 -11 20 -22 37
-25 37 -3 0 -134 -129 -293 -288z"/>
</g>
</svg>
