<svg height="64" viewBox="0 0 32 32" width="64" xmlns="http://www.w3.org/2000/svg" xmlns:xlink="http://www.w3.org/1999/xlink"><clipPath id="a"><path clip-rule="evenodd" d="m343.58-477.68 60.7 8.52c-3.24-13.73-13.2-22.6-30.15-25.36l-30.56 16.84z"/></clipPath><clipPath id="b"><path clip-rule="evenodd" d="m221.03-362.1-4.33 51.56c8.17 11.16 19.4 12.13 31.2 11.26-8.53-21.23-25.57-63.68-26.87-62.82z"/></clipPath><clipPath id="c"><path clip-rule="evenodd" d="m271.5-373.63 30.56 58.96c18.07-9.8 32.22-21.74 45.18-34.53z"/></clipPath><clipPath id="d"><path clip-rule="evenodd" d="m328.35-426.28 53.85 32.98c1.12.63 15.3-23.93 18.53-37.8l-72.38 4.83z"/></clipPath><clipPath id="e"><path clip-rule="evenodd" d="m401.12-430.9c7.8-23.54 9.6-57.3-27.18-63.58l-30.18 16.67 57.36 46.9z"/></clipPath><clipPath id="f"><path clip-rule="evenodd" d="m328.24-426.4 19.5 77.2c22.93-24.1 43.5-50.03 53.6-82.1l-73.08 4.9z"/></clipPath><clipPath id="g"><path clip-rule="evenodd" d="m248.68-297.9 22.86-75.72 75.92 24.4c-27.45 25.74-57.98 47.5-98.78 51.33z"/></clipPath><clipPath id="h"><path clip-rule="evenodd" d="m250-453.24c29.43-29.18 67.37-46.42 81.93-31.73 14.55 14.7-.88 50.4-30.3 79.56s-66.9 47.36-81.45 32.67c-14.56-14.68.4-51.33 29.83-80.5z"/></clipPath><clipPath id="i"><path clip-rule="evenodd" d="m210.38-393.67-2.7 56.47 14.13-25.77z"/></clipPath><clipPath id="j"><path clip-rule="evenodd" d="m319.17-494.77 55 .25-33.73 18.64-21.28-18.9z"/></clipPath><clipPath id="k"><path clip-rule="evenodd" d="m327.68-426.2 73.32-4.8-57.35-46.84-15.97 51.63z"/></clipPath><clipPath id="l"><path clip-rule="evenodd" d="m266-375.28 81.87 26.17-21.2-83.04z"/></clipPath><clipPath id="m"><path clip-rule="evenodd" d="m221.02-362.52 27.66 64.64 23.04-75.48z"/></clipPath><clipPath id="n"><path clip-rule="evenodd" d="m248.55-297.9 146.4-9.85-92.25-7.25-54.16 17.1z"/></clipPath><clipPath id="o"><path clip-rule="evenodd" d="m347.9-349.36 46.88 41.6-12.6-86.9-34.3 45.28z"/></clipPath><clipPath id="p"><path clip-rule="evenodd" d="m248.06-297.7 146.47-9.94 11.28-147.7-44.63 90.46-113.12 67.17z"/></clipPath><linearGradient id="q" spreadMethod="pad" x1="381.75" x2="339.95" xlink:href="none" y1="-279.745" y2="-353.545"><stop offset="0" stop-color="#fb7655"/><stop offset=".41" stop-color="#e42b1e"/><stop offset=".99" stop-color="#900"/><stop offset="1" stop-color="#900"/></linearGradient><linearGradient id="r" spreadMethod="pad" x1="402.574" x2="348.705" xlink:href="none" y1="-341.734" y2="-377.883"><stop offset="0" stop-color="#871101"/><stop offset=".99" stop-color="#911209"/><stop offset="1" stop-color="#911209"/></linearGradient><linearGradient id="s" spreadMethod="pad" x1="359.474" x2="305.605" xlink:href="none" y1="-277.507" y2="-313.656"><stop offset="0" stop-color="#871101"/><stop offset=".99" stop-color="#911209"/><stop offset="1" stop-color="#911209"/></linearGradient><linearGradient id="t" spreadMethod="pad" x1="246.376" x2="254.727" xlink:href="none" y1="-367.898" y2="-313.625"><stop offset="0" stop-color="#fff"/><stop offset=".23" stop-color="#e57252"/><stop offset=".46" stop-color="#de3b20"/><stop offset=".99" stop-color="#a60003"/><stop offset="1" stop-color="#a60003"/></linearGradient><linearGradient id="u" spreadMethod="pad" x1="303.813" x2="306.89" xlink:href="none" y1="-418.579" y2="-363.189"><stop offset="0" stop-color="#fff"/><stop offset=".23" stop-color="#e4714e"/><stop offset=".56" stop-color="#be1a0d"/><stop offset=".99" stop-color="#a80d00"/><stop offset="1" stop-color="#a80d00"/></linearGradient><linearGradient id="v" spreadMethod="pad" x1="354.784" x2="363.995" xlink:href="none" y1="-469.767" y2="-430.072"><stop offset="0" stop-color="#fff"/><stop offset=".18" stop-color="#e46342"/><stop offset=".4" stop-color="#c82410"/><stop offset=".99" stop-color="#a80d00"/><stop offset="1" stop-color="#a80d00"/></linearGradient><linearGradient id="w" spreadMethod="pad" x1="326.656" x2="366.35" xlink:href="none" y1="-483.748" y2="-503.595"><stop offset="0" stop-color="#fff"/><stop offset=".54" stop-color="#c81f11"/><stop offset=".99" stop-color="#bf0905"/><stop offset="1" stop-color="#bf0905"/></linearGradient><linearGradient id="x" spreadMethod="pad" x1="211.584" x2="214.851" xlink:href="none" y1="-381.735" y2="-349.025"><stop offset="0" stop-color="#fff"/><stop offset=".31" stop-color="#de4024"/><stop offset=".99" stop-color="#bf190b"/><stop offset="1" stop-color="#bf190b"/></linearGradient><linearGradient id="y" spreadMethod="pad" x1="189.12" x2="342.694" xlink:href="none" y1="-340.181" y2="-498.098"><stop offset="0" stop-color="#bd0012"/><stop offset=".07" stop-color="#fff"/><stop offset=".27" stop-color="#c82f1c"/><stop offset=".33" stop-color="#820c01"/><stop offset=".46" stop-color="#a31601"/><stop offset=".72" stop-color="#b31301"/><stop offset=".99" stop-color="#e82609"/><stop offset="1" stop-color="#e82609"/></linearGradient><linearGradient id="z" spreadMethod="pad" x1="306.757" x2="260.503" xlink:href="none" y1="-324.257" y2="-335.673"><stop offset="0" stop-color="#8c0c01"/><stop offset=".54" stop-color="#990c00"/><stop offset=".99" stop-color="#a80d0e"/><stop offset="1" stop-color="#a80d0e"/></linearGradient><linearGradient id="A" spreadMethod="pad" x1="386.206" x2="345.112" xlink:href="none" y1="-379.776" y2="-416.608"><stop offset="0" stop-color="#7e110b"/><stop offset=".99" stop-color="#9e0c00"/><stop offset="1" stop-color="#9e0c00"/></linearGradient><linearGradient id="B" spreadMethod="pad" x1="401.303" x2="380.833" xlink:href="none" y1="-447.354" y2="-469.237"><stop offset="0" stop-color="#79130d"/><stop offset=".99" stop-color="#9e120b"/><stop offset="1" stop-color="#9e120b"/></linearGradient><radialGradient id="C" cx="351.50977" cy="-415.8999" r="50.36" spreadMethod="pad" xlink:href="none"><stop offset="0" stop-color="#a80d00"/><stop offset=".99" stop-color="#7e0e08"/><stop offset="1" stop-color="#7e0e08"/></radialGradient><radialGradient id="D" cx="281.77002" cy="-349.54004" r="66.9469" spreadMethod="pad" xlink:href="none"><stop offset="0" stop-color="#a30c00"/><stop offset=".99" stop-color="#800e08"/><stop offset="1" stop-color="#800e08"/></radialGradient><linearGradient id="E" spreadMethod="pad" x1="234.351" x2="217.669" xlink:href="none" y1="-297.951" y2="-354.548"><stop offset="0" stop-color="#8b2114"/><stop offset=".43" stop-color="#9e100a"/><stop offset=".99" stop-color="#b3100c"/><stop offset="1" stop-color="#b3100c"/></linearGradient><linearGradient id="F" spreadMethod="pad" x1="362.323" x2="399.723" xlink:href="none" y1="-485.492" y2="-468.983"><stop offset="0" stop-color="#b31000"/><stop offset=".44" stop-color="#910f08"/><stop offset=".99" stop-color="#791c12"/><stop offset="1" stop-color="#791c12"/></linearGradient><g fill-rule="evenodd" transform="matrix(.1620975 0 0 .1620975 -33.66791918966 80.2861671354)"><g><path clip-path="url(#p)" d="m248.06-297.7 146.47-9.94 11.28-147.7-44.63 90.46-113.12 67.17z" fill="url(#q)"/><path clip-path="url(#o)" d="m347.9-349.36 46.88 41.6-12.6-86.9-34.3 45.28z" fill="url(#r)"/><path clip-path="url(#n)" d="m248.55-297.9 146.4-9.85-92.25-7.25-54.16 17.1z" fill="url(#s)"/><path clip-path="url(#m)" d="m221.02-362.52 27.66 64.64 23.04-75.48z" fill="url(#t)"/><path clip-path="url(#l)" d="m266-375.28 81.87 26.17-21.2-83.04z" fill="url(#u)"/><path clip-path="url(#k)" d="m327.68-426.2 73.32-4.8-57.35-46.84-15.97 51.63z" fill="url(#v)"/><path clip-path="url(#j)" d="m319.17-494.77 55 .25-33.73 18.64-21.28-18.9z" fill="url(#w)"/><path clip-path="url(#i)" d="m210.38-393.67-2.7 56.47 14.13-25.77z" fill="url(#x)"/></g><g><path d="m209.62-394.64 11.5 32.62 49.97-11.2 57.05-53.02 16.1-51.14-25.35-17.9-43.1 16.13-40.88 38.1c-.94.48-17.4 31.6-25.3 46.43z" fill="#fff"/><g clip-path="url(#h)"><path d="m250-453.24c29.43-29.18 67.37-46.42 81.93-31.73 14.55 14.7-.88 50.4-30.3 79.56s-66.9 47.36-81.45 32.67c-14.56-14.68.4-51.33 29.83-80.5z" fill="url(#y)"/></g><g clip-path="url(#g)"><path d="m248.68-297.9 22.86-75.72 75.92 24.4c-27.45 25.74-57.98 47.5-98.78 51.33z" fill="url(#z)"/></g><g clip-path="url(#f)"><path d="m328.24-426.4 19.5 77.2c22.93-24.1 43.5-50.03 53.6-82.1l-73.08 4.9z" fill="url(#A)"/></g><g clip-path="url(#e)"><path d="m401.12-430.9c7.8-23.54 9.6-57.3-27.18-63.58l-30.18 16.67 57.36 46.9z" fill="url(#B)"/></g><path d="m207.68-337.54c1.08 38.85 29.1 39.43 41.05 39.77l-27.58-64.4-13.47 24.64z" fill="#9e1209"/><g clip-path="url(#d)"><path d="m328.35-426.28 53.85 32.98c1.12.63 15.3-23.93 18.53-37.8l-72.38 4.83z" fill="url(#C)"/></g><g clip-path="url(#c)"><path d="m271.5-373.63 30.56 58.96c18.07-9.8 32.22-21.74 45.18-34.53z" fill="url(#D)"/></g><g clip-path="url(#b)"><path d="m221.03-362.1-4.33 51.56c8.17 11.16 19.4 12.13 31.2 11.26-8.53-21.23-25.57-63.68-26.87-62.82z" fill="url(#E)"/></g><g clip-path="url(#a)"><path d="m343.58-477.68 60.7 8.52c-3.24-13.73-13.2-22.6-30.15-25.36l-30.56 16.84z" fill="url(#F)"/></g></g></g></svg>