<?xml version="1.0" encoding="utf-8"?>
<!-- Generator: Adobe Illustrator 21.1.0, SVG Export Plug-In . SVG Version: 6.00 Build 0)  -->
<svg version="1.1" id="Layer_1" xmlns="http://www.w3.org/2000/svg" xmlns:xlink="http://www.w3.org/1999/xlink" x="0px" y="0px"
	 viewBox="0 0 200 200" enable-background="new 0 0 200 200" xml:space="preserve">
<g>
	<path fill="#0ABEF5" d="M72.8,104.2c2.3-5.4-0.2-11.6-5.6-13.9C59.4,86.3,51.8,81.5,44,77c-3-1.8-6.2-3.7-9.4-5.3
		c-0.4-0.2-0.9-0.4-1.3-0.6c-5.1-1.8-10.7,0.8-12.5,5.9c-0.2,0.5-0.4,0.9-0.7,1.4v4.1c1.3,3.6,4,6.5,7.5,8.1c5.3,2.9,10.5,6,15.7,9
		c0.1,0.1,0.2,0.2,0.5,0.6l-4.6,2.7c-4,2.3-7.9,4.8-12,6.9c-3.5,1.6-6.1,4.5-7.2,8.2v3.7c3,8.9,10.8,9.5,17.1,5.6
		c9.9-6.1,19.9-12,30.2-17.4C69.8,108.7,71.8,106.7,72.8,104.2z"/>
	<path fill="#0ABEF5" d="M43.1,58.4C54,64.9,65,71.2,76,77.4c7.5,4.2,15.5-0.6,15.5-9.2c0-12.5,0-25,0-37.5c0-1.1-0.1-2.3-0.4-3.4
		c-0.9-4-3.9-6-7.5-7.4l-4.2,0.1c-6,2.1-8.3,6.5-7.8,12.7c0.1,2,0,4,0,6v13.1c-1-0.5-1.6-0.8-2.3-1.2c-5.4-3-10.6-6.2-15.9-9.1
		c-1.6-1-3.5-1.6-5.3-1.8c-4.5-0.4-8.7,2.5-10,6.8C36.6,51.2,38.8,56.2,43.1,58.4z"/>
	<path fill="#0ABEF5" d="M84.2,121.6c-3-0.8-6.2-0.3-8.8,1.4c-10.6,6.1-21.2,12.3-31.8,18.4c-0.8,0.4-1.6,0.9-2.3,1.5
		c-3,2.2-4.3,6-3.5,9.6c0.2,1.2,0.7,2.4,1.3,3.4c2.9,4.6,9,6,13.6,3.1c5.6-3.2,11-6.3,16.5-9.5l2.4-1.3c0,6.6,0.3,13.1,0,19.2
		c-0.3,6.1,1.9,10.6,7.9,12.7l4.1,0c4.5-1.7,7.8-4.5,7.8-9.6c0.1-13.3,0.1-26.5,0-39.8C91.3,126.3,88.4,122.6,84.2,121.6z"/>
	<path fill="#0ABEF5" d="M124.9,77.1c7.3-4.2,14.7-8.5,22.1-12.7c3.4-2,6.9-3.9,10.3-6c3.5-1.8,5.6-5.5,5.3-9.5
		c-0.1-1.6-0.6-3.2-1.4-4.5c-2.8-4.6-8.9-6.1-13.5-3.2c-5.6,3-11,6.3-16.5,9.5c-0.7,0.4-1.4,0.7-2.3,1.2c0-7.2,0-13.9,0-20.6
		c0-1.2-0.1-2.4-0.3-3.6c-0.9-4.1-3.9-6.2-7.5-7.6l-4.1,0c-6,2.1-8,6.5-7.9,12.7c0.2,11.7,0,23.4,0,35.2
		C109,77.1,116.7,81.7,124.9,77.1z"/>
	<path fill="#0ABEF5" d="M157.4,141.9c-11.1-6.6-22.2-13-33.4-19.3c-7.2-4.1-15,0.8-15,9.1c0,11.9,0.2,23.8,0,35.6
		c-0.1,6.1,1.9,10.6,7.9,12.7l4.1,0.1c6-2.1,8.3-6.5,7.9-12.7c-0.1-2.4,0-4.9,0-7.4v-11.7c1,0.5,1.6,0.8,2.3,1.2
		c5.4,3,10.8,6.3,16.3,9.4c0.3,0.2,0.5,0.3,0.8,0.5c4.8,2.6,10.8,0.7,13.4-4.1C164.1,150.4,162.3,144.4,157.4,141.9z"/>
	<path fill="#0ABEF5" d="M174.6,89.4c3.7-1.9,5.9-5.9,5.3-10c-0.7-7.5-8.5-11.2-15.3-7.4c-10.7,6.1-21.4,12.3-32,18.5
		c-8.5,4.9-8.5,14,0,18.9l31.2,18c0.8,0.5,1.6,0.9,2.4,1.3c4.1,1.6,8.7,0.4,11.4-3c3.4-4.3,2.7-10.5-1.6-13.9
		c-1.4-1-2.8-1.8-4.2-2.6l-15.7-9.1c1-0.6,1.6-1.1,2.4-1.4L174.6,89.4z"/>
	<path fill="#0ABEF5" d="M117.1,104.5c2.3-2.6,2.3-6.5,0-9.2c-4-4.1-8.1-8.1-12.2-12.2c-2.7-2.4-6.7-2.4-9.3,0c-4,4-8.1,8-12,12
		c-2.5,2.7-2.5,6.8,0,9.5c3.8,3.9,7.6,7.8,11.6,11.5c1.5,1.1,3.1,2.1,4.9,2.8c1.7-0.5,3.3-1.2,4.7-2.2
		C109,112.8,113,108.7,117.1,104.5z M102.7,104.9c-0.8,0.6-1.6,1.2-2.5,1.8v0.1c-0.9-0.6-1.7-1.3-2.5-2c-5.1-4.9-5.1-4.9,0-9.9
		c2-1.9,3-1.9,5,0C108,99.9,108,99.9,102.7,104.9z"/>
</g>
</svg>
