<svg xmlns="http://www.w3.org/2000/svg" xmlns:xlink="http://www.w3.org/1999/xlink" viewBox="0 0 48 48" version="1.1">
	<g id="surface1">
		<path d="M35 37c-2.203 0-4-1.797-4-4 0-2.203 1.797-4 4-4 2.203 0 4 1.797 4 4 0 2.203-1.797 4-4 4z" fill="#37474F"/>
		<path d="M25 15l6.133 11A7.935 7.935 0 0 1 35 25c4.41 0 8 3.59 8 8s-3.59 8-8 8a7.982 7.982 0 0 1-6.238-3" fill="none" stroke-width="4" stroke-linecap="butt" stroke-linejoin="miter" stroke="#37474F" stroke-opacity="1" stroke-miterlimit="10"/>
		<path d="M35 33H22c0 4.41-3.59 8-8 8s-8-3.59-8-8c0-3.719 2.555-6.855 6-7.746" fill="none" stroke-width="4" stroke-linecap="butt" stroke-linejoin="miter" stroke="#37474F" stroke-opacity="1" stroke-miterlimit="10"/>
		<path d="M14 37c-2.203 0-4-1.797-4-4 0-2.203 1.797-4 4-4 2.203 0 4 1.797 4 4 0 2.203-1.797 4-4 4z" fill="#E91E63"/>
		<path d="M25 19c-2.203 0-4-1.797-4-4 0-2.203 1.797-4 4-4 2.203 0 4 1.797 4 4 0 2.203-1.797 4-4 4z" fill="#37474F"/>
		<path d="M14 33l6.813-11.188A8.004 8.004 0 0 1 17 15c0-4.41 3.59-8 8-8s8 3.59 8 8c0 .7-.09 1.383-.262 2.031" fill="none" stroke-width="4" stroke-linecap="butt" stroke-linejoin="miter" stroke="#E91E63" stroke-opacity="1" stroke-miterlimit="10"/>
	</g>
</svg>